<?xml version="1.0" encoding="utf-8"?>
<!-- Generator: Adobe Illustrator 24.3.0, SVG Export Plug-In . SVG Version: 6.00 Build 0)  -->
<svg version="1.1" id="Layer_1" xmlns="http://www.w3.org/2000/svg" xmlns:xlink="http://www.w3.org/1999/xlink" x="0px" y="0px"
	 viewBox="0 0 82.2 82.2" style="enable-background:new 0 0 82.2 82.2;" xml:space="preserve">
<style type="text/css">
	.st0{display:none;}
	.st1{display:inline;fill:#FF9315;}
	.st2{display:inline;}
	.st3{fill:none;stroke:#3995A1;stroke-width:6;stroke-miterlimit:10;}
	.st4{fill:#FF9315;}
	.st5{fill:none;stroke:#3995A1;stroke-width:5;stroke-linecap:round;stroke-miterlimit:10;}
</style>
<g class="st0">
	<path class="st1" d="M68.2,13.5v54.1H14.2V13.5H68.2 M70.6,8.5H11.8c-1.5,0-2.7,1.2-2.7,2.7v58.8c0,1.5,1.2,2.7,2.7,2.7h58.8
		c1.5,0,2.7-1.2,2.7-2.7V11.1C73.2,9.7,72,8.5,70.6,8.5L70.6,8.5z"/>
</g>
<g class="st0">
	<g class="st2">
		<line class="st3" x1="34.2" y1="23.4" x2="34.2" y2="57.6"/>
		<line class="st3" x1="48.2" y1="23.4" x2="48.2" y2="57.6"/>
	</g>
	<g class="st2">
		<line class="st3" x1="58.3" y1="33.5" x2="24.1" y2="33.5"/>
		<line class="st3" x1="58.3" y1="47.5" x2="24.1" y2="47.5"/>
	</g>
</g>
<g>
	<path class="st4" d="M57.4,13.7c5.8,0,10.5,4.7,10.5,10.5v32.5c0,5.8-4.7,10.5-10.5,10.5H24.9c-5.8,0-10.5-4.7-10.5-10.5V24.3
		c0-5.8,4.7-10.5,10.5-10.5H57.4 M57.4,8.5H24.9c-8.7,0-15.8,7.1-15.8,15.8v32.5c0,8.7,7.1,15.8,15.8,15.8h32.5
		c8.7,0,15.8-7.1,15.8-15.8V24.3C73.2,15.5,66.2,8.5,57.4,8.5L57.4,8.5z"/>
</g>
<line class="st5" x1="35.5" y1="26.7" x2="35.5" y2="54.3"/>
<line class="st5" x1="46.9" y1="26.7" x2="46.9" y2="54.3"/>
<line class="st5" x1="55" y1="34.8" x2="27.4" y2="34.8"/>
<line class="st5" x1="55" y1="46.2" x2="27.4" y2="46.2"/>
</svg>
