<?xml version="1.0" encoding="utf-8"?>
<!-- Generator: Adobe Illustrator 22.0.1, SVG Export Plug-In . SVG Version: 6.00 Build 0)  -->
<svg version="1.1" id="Layer_1" xmlns="http://www.w3.org/2000/svg" xmlns:xlink="http://www.w3.org/1999/xlink" x="0px" y="0px"
	 viewBox="0 0 2000 90.9" style="enable-background:new 0 0 2000 90.9;" xml:space="preserve">
<style type="text/css">
	.st0{fill:#2C818C;}
	.st1{fill:#F79321;}
</style>
<g id="S_1_">
	<path class="st0" d="M31,25.3h56.1c0,0,4.2-0.6,4.4,3.2c0,0,0.5,3.4,0.5,4.5c0,1.1,2.1,4.8,6.6,4.5c0,0,7,0.1,7-7.6
		c0,0-1-7.7-3.5-10.3c-2.5-2.6-5.6-7.2-14.8-8H29.1c0,0-15.2,2-18.6,13c0,0-5.8,15.8,7.1,25.1c0,0,4.5,4.2,13.9,4.4h52
		c0,0,8.2,1.3,8.3,9.3c0,0,0.9,9.7-10.5,10.2l-54.7-0.3c0,0-3,0.1-3.6-6.3c-0.6-6.4-5.2-6.1-7.5-6c0,0-8.5,0.4-5.9,10
		c0,0,1.2,13.9,16.5,16l56.5-0.1c0,0,16.4,1,21.9-15.7c0,0,2.3-6-0.3-15.4c0,0-3.2-13-20.5-15.4H30c0,0-7.4-0.3-7.1-8.3
		C22.9,32.1,21.6,26.4,31,25.3z"/>
	<path class="st0" d="M22.9,34.6c0,0-1.8-8.6,8.1-9.3c10-0.7-0.6-2.6-0.6-2.6s-11,4.9-11.4,5.4c-0.4,0.5,0.4,3.7,0.4,4
		c0,0.3,0.4,1.8,0.6,2.2C20.2,34.7,23.4,36.6,22.9,34.6z"/>
	<path class="st0" d="M87.6,55.6c0,0-2.3-2.1-12.7-1.6c0,0-2.6-1.2-0.3-1.9c2.3-0.7,7.4-0.4,7.8-0.3c0.4,0.1,2.8,0.8,2.8,0.8
		s3.6,0.9,4,1.2c0.3,0.3,1,1.2,1,1.5C90.1,55.7,88.5,56.1,87.6,55.6z"/>
	<path class="st0" d="M54.5,15.8l39.9,0.1l0.8,2.2l-0.7,1.3c0,0-32.7,1.3-34,1.5c-1.2,0.2-4.5-0.9-4.7-0.9
		C55.6,20.1,48.3,16.9,54.5,15.8z"/>
	<path class="st0" d="M9.2,68.1c0,0-0.1,6.6,4.9,12.6l2.7-4.1L15,73.9c0,0-1.7-2.2-1.9-2.3C12.8,71.5,9.2,68.1,9.2,68.1z"/>
	<polygon class="st0" points="35.5,75 35.3,76.8 98.5,76 98.5,74.4 	"/>
	<path class="st0" d="M58,47.7c0,0-0.2,1.7-0.2,1.8c0,0.1,40.9,0.1,40.9,0.1l-0.9-1.5L58,47.7z"/>
	<path class="st0" d="M102.8,20.5c0,0-1.5-2.9-6.7-6.3l-1,2.7c0,0,0.5,1.6,0.6,1.9c0.1,0.3,0.8,0.9,0.9,1.1c0.1,0.2,0.8,0.7,0.8,0.7
		s-1.5-0.9-1.7-0.9c-0.1,0-0.7,0.8-0.7,0.9c0,0.1,0.4,1.1,0.5,1.3c0.1,0.2,0.9,0.6,1,0.6c0.1,0,0.9,0.2,1,0.1c0.1,0,0.5-0.2,0.9-0.2
		C98.7,22.5,102.8,20.5,102.8,20.5z"/>
</g>
<g id="W_1_">
	<path class="st0" d="M142.9,20.5l26.9,63.2c0,0,1.5,3.7,6.6,3.6c0,0,3.9,0.3,5.7-3.9L201.9,36L222.8,83c0,0,1.7,4.4,6.1,4.2
		c0,0,3.9,0.7,6.5-5.4l23-60.3c0,0,3.3-7.1-4.2-9.8c0,0-6-1.7-8.2,4.4l-17.8,45.7l-20-45.8c0,0-0.8-4.4-6.5-4.7c0,0-4.8-0.4-7.1,6.4
		L176,62.5l-20.2-47.1c0,0-2.3-5.7-9.2-3.6C146.6,11.9,141.4,12.9,142.9,20.5z"/>
	<path class="st0" d="M207.9,15.3c0,0,1,2.5,1.1,2.8c0.2,0.3-0.3,0.2-0.3,0.2c0,0-0.3-0.2-0.4-0.2c0,0-0.3-0.3-0.4-0.3
		c-0.1-0.1-0.3-0.6-0.5-0.7C207.3,17,207.5,14.8,207.9,15.3z"/>
</g>
<path id="I_1_" class="st0" d="M302.5,16.7v65.8c0,0,0.7,4.7,6.5,4.5c0,0,6.9,0.1,6.9-4.9V16.6c0,0-0.6-4.8-6.6-5.1
	C309.3,11.5,303.3,11.3,302.5,16.7z"/>
<path id="T_1_" class="st0" d="M400.5,25.2v57.2c0,0,0.2,4.9,6.6,4.8c0,0,6.7-0.5,6.7-5.6l0.1-56.3h35.9c0,0,5.3-0.6,5.3-7
	c0,0,0.3-5.8-5.3-6.5l-85.8-0.1c0,0-5.1,1.4-4.9,7.2c0,0,0,5.9,5.3,6.3H400.5z"/>
<g id="C_1_">
	<g>
		<path class="st0" d="M517.4,25.1h57.4c0,0,4.4,0.1,4.5,6c0,0-1,6.5,6.3,6.4c0,0,7.4-0.1,7-7c0,0,0.6-16.9-16.3-18.8l-61.1-0.1
			c0,0-10.9,1.8-15.3,9.8c-4.4,7.9-3.9,10.3-4.1,12.5v35.4c0,0,0.8,16.3,20.7,17.9h58.7c0,0,10-0.9,13.8-8.7c0,0,3.2-4.2,2.1-13.6
			c0,0-0.9-3.6-6.2-3.6c0,0-6.2-0.7-6.7,5.9c0,0,1.1,6.3-4.8,6.3h-57.2c0,0-6.9,0.1-7.1-8.2V35.1C509,35.1,508.4,25.4,517.4,25.1z"
			/>
		<path class="st0" d="M515.1,11.6c0,0-18,2-19.3,20.7l3.8,6l11.8-19.5l4.6-1.5l0.2-2.6L515.1,11.6z"/>
	</g>
	<path class="st0" d="M578.1,67.2c0,0,0.7,6.3-4.8,6.3s3.7,0.7,3.7,0.7l2.5-0.6c0,0,2.3-1.5,2.6-2c0.3-0.4,0.9-1,0.7-1.6
		C582.6,69.4,578.1,67.2,578.1,67.2z"/>
</g>
<g id="H_1_">
	<path class="st0" d="M638.6,17.3V82c0,0,0.9,5.3,7,5c0,0,6.3-0.5,6.5-5.5V57.1h69.1v25c0,0,1.5,5.2,6.9,5c0,0,6.7-0.1,6.6-5.2V17
		c0,0-0.3-5.3-6.6-5.3c0,0-6.5-0.4-6.7,5.4v26.5H652V17.3c0,0,0.1-5.8-6.6-5.8C645.5,11.5,638.8,10.8,638.6,17.3z"/>
	<path class="st0" d="M721.2,82.1c0,0,0.1,5.2,7.5,5c0,0,0.1-3.2,0.1-3.4c-0.1-0.2-0.5-1.7-0.5-1.7s-1.6-2-1.8-2
		C726.2,80,721.2,82.1,721.2,82.1z"/>
</g>
<g id="B">
	<path class="st0" d="M786.8,24.4h63c0,0,5.7,0.9,5.6,7.2c0,0-0.6,7-5.7,7h-62.4c0,0-5.6-0.2-5.6,6.8v36.3c0,0,0.1,5.5,6.1,5.6h7.1
		l0.8-11.3l-1.9-0.3l1.2-2V52.4l58.6-0.1c0,0,10.1,1.1,10.3,10.2c0,0,1.5,10.7-11.7,11.2l4.8,4.8l8.3-7.6c0,0,3-9.3,3-9.7
		c0-0.4-0.9-3.5-1.1-3.8c-0.2-0.3-2.7-3.3-2.7-3.3s-3.9-2.5-4.3-2.6c-0.4-0.1-15.9-5.6-15.9-5.6l8.6-4c0,0,4.3-1.8,4.3-2.1
		c0-0.3,3.3-10,3.1-10.8c-0.2-0.8-1.6-5.1-2.2-5.7c-0.7-0.7-1.6-1.7-2.5-2.2c-1-0.5-19.1-4.1-19.7-4c-0.6,0.1-28.6-1.8-28.6-1.8
		L786.8,24.4z"/>
	<path class="st0" d="M786.8,24.4c0,0-5.1-0.7-5.2-7.1c0,0-0.3-6.4,5-6.5l65.3,0c0,0,17.4,3.1,17.4,20.4c0,0,0.2,5-3.6,11.2
		c0,0,12.2,5,11.9,20.7c0,0,0,22.2-26.3,24l-57,0.1c0,0-15.4,1-7.4-3.9c8.1-4.9,5.3-7,5.3-7l-0.4-2.6l3-0.3l57.9,0.1
		c0,0,1.4,1.5,3.9,0.8c2.5-0.7,10.4-4.9,8.3-12.7c-2.1-7.9-7.2-11.2-11.6-11.5c-4.4-0.2-11.5-3-11.6-3.2c-0.1-0.1,0.1-1.4,0.1-1.4
		s1.5-1.9,1.6-2c0.1-0.1,4-0.6,4.2-0.7c0.2,0,8.4-4.1,8.9-9.5c0.6-5.4,3.7-10.1-5.5-10.8c-9.2-0.7-58.6,0.6-59,0.7
		C791.7,23.5,786.8,24.4,786.8,24.4z"/>
</g>
<g id="O">
	<path class="st0" d="M918.2,32v35.3c0,0,2.3,19.6,20.6,19.9h54.8c0,0,20.1-0.9,20.4-20.6V32c0,0-1.5-18-19.9-20.2l-56.7,0l2.5,13.5
		h51.7c0,0,9.2,0.5,9.2,9.7v29.8c0,0-0.2,8.9-8,8.9h-53.4c0,0-7.6-0.9-7.9-8.9V34.4L918.2,32z"/>
	<path class="st0" d="M937.4,11.8c0,0-17.1,2.1-19,20.3c0,0,4.1,3.7,4.2,3.9c0.1,0.2,9.1-1.5,9.1-1.5s-0.7-7.9,8.4-9.2
		c9.1-1.3,5.1-3.5,5.1-3.5L937.4,11.8z"/>
</g>
<g id="A">
	<path class="st0" d="M1069.4,56.3l-13.9,22.6c0,0-2.7,4.5,2.2,7.7c0,0,5.5,3.6,8.6-1.2l12-18.8l48.8-0.1l11.4,18.7
		c0,0,5.1,5.1,10.5,1.4c0,0,3.9-4.6,1.8-7.7l-41-62.9c0,0-3.9-6.9-10.8-3c0,0-5.6,3.2-1.5,9.9l20.3,30.1l-44,0.4
		C1073.7,53.3,1071.6,53.2,1069.4,56.3z"/>
	<path class="st0" d="M1148.7,86.6c0,0,3.5-2,2.5-6.8c0,0-3.6,5.5-2.7,6.9"/>
</g>
<path id="R" class="st0" d="M1193.1,50.7v31.2c0,0,0.9,5.4,6.8,5.4c0,0,6.8,0.3,6.8-6.7l-0.1-22.2h61.2c0,0,7.9-1.6,8.1,10l0.1,12.9
	c0,0,0.5,6.1,6.8,6.1c0,0,6.2,0.1,6.3-6.2l-0.2-18.3c0,0-1.5-9.2-8.2-13.4c0,0,4.7-5.4,4.3-15.6c0,0,0.8-19.1-20.3-22h-66.2
	c0,0-5.1,0.5-5.2,7.1c0,0-0.5,6.1,6.7,6.1h62.8c0,0,8.5,0.3,8.6,9.6c0,0,0.6,9.7-8.6,9.7h-62.6C1200.2,44.5,1193.3,44.3,1193.1,50.7
	z"/>
<g>
	<path class="st0" d="M1348.7,25.3h60.7c0,0,8.5-0.6,8.5,10.4v29.2l13.2,1.2v-35c0,0-0.8-16-20.2-19.3h-70.3c0,0-5.1,0.3-5.1,7.1
		l-0.1,63.2c0,0,0.2,5.2,5.9,5.2h69l-0.4-13.5l-61.2-0.1V25.3z"/>
	<path class="st0" d="M1409.9,73.6c0,0,7.5-1,8-8.7l5.5-2.8l4.2,1.9l3.5,2c0,0-0.1,19.9-20.8,21.1l-6-4.5c0,0,4.2-5.5,4.2-5.8
		S1409.9,73.6,1409.9,73.6z"/>
</g>
<g id="F">
	<path class="st1" d="M1476.9,46.2v35.5c0,0,0.3,5.7,6.4,5.6c0,0,6.9,0.6,7-6.1V54.2h68.4c0,0,5.8-0.9,5.7-6.6c0,0,1.2-6.5-5.9-7
		l-75.6,0.1C1482.9,40.7,1478.4,40.4,1476.9,46.2z"/>
	<path class="st1" d="M1482.3,25.3h85.2c0,0,5.4-0.3,5.2-6.2c0,0,1.2-7.2-5.8-7.2l-85,0.1c0,0-5.1,0.4-5.1,6.6
		C1476.9,18.6,1476.9,23.9,1482.3,25.3z"/>
</g>
<path id="R_1_" class="st1" d="M1620.2,25.3h64.6c0,0,8.5,0,8.5,10.3c0,0,0.7,8.7-8.3,9.1h-63.6c0,0-6.2-0.7-6.4,8v29.1
	c0,0,1.1,5.7,6.3,5.5c0,0,6.7,0.3,6.8-6.3V58.4h60.2c0,0,9-0.6,9.2,8v15.4c0,0,0.6,5.6,7.1,5.5c0,0,5.9-0.7,6.1-6.9V65.2
	c0,0,0-10-8.3-15.5c0,0-0.1-0.7,0.3-1.2c0.4-0.5,4.6-4.6,4.1-15.3c0,0-1.7-19.1-20.9-21.4h-65.8c0,0-5.1,0.5-5.3,7
	C1615,18.8,1614.9,24.6,1620.2,25.3z"/>
<g id="E">
	<path class="st1" d="M1838.3,40.7h-76.2c0,0-4.6,0.7-4.8,6.8V81c0,0-0.5,6.3,8.3,6.2h81c0,0,6-0.7,6.1-7.6c0,0-0.2-5.9-5.7-5.9
		h-76.5V54.1h67.7c0,0,6.6-0.4,6.4-7.3C1844.8,46.8,1845,40.7,1838.3,40.7z"/>
	<path class="st1" d="M1762.5,25.3c0,0-5.2-1-5.3-7.1c0,0-0.1-6.1,5.6-6.2l84.9-0.1c0,0,5.9,0.1,5.5,7.4c0,0,0.6,5.9-5.4,6.1
		L1762.5,25.3z"/>
</g>
<g id="E_1_">
	<path class="st1" d="M1900.3,25.3h85.3c0,0,5.4-0.9,5.2-6.9c0,0,0.6-6.6-5.6-6.6h-84.8c0,0-5.6,0.1-5.5,7.2
		C1894.9,18.9,1894.7,24.9,1900.3,25.3z"/>
	<path class="st1" d="M1900.2,40.6h75.7c0,0,7,0.3,6.6,7.9c0,0,0.1,5.9-5.8,5.8h-68.4v19.3h76.8c0,0,5.9,0,5.7,7.1
		c0,0,0.2,6.5-6.1,6.5h-82.5c0,0-6.8,0.2-7.1-7.6V46.5C1895.1,46.5,1896.1,40.8,1900.2,40.6z"/>
</g>
</svg>
