<?xml version="1.0" encoding="utf-8"?>
<!-- Generator: Adobe Illustrator 24.0.2, SVG Export Plug-In . SVG Version: 6.00 Build 0)  -->
<svg version="1.1" id="artwork" xmlns="http://www.w3.org/2000/svg" xmlns:xlink="http://www.w3.org/1999/xlink" x="0px" y="0px"
	 viewBox="0 0 134.2 38.4" style="enable-background:new 0 0 134.2 38.4;" xml:space="preserve">
<style type="text/css">
	.st0{clip-path:url(#SVGID_2_);}
	.st1{fill:#FFFFFF;}
</style>
<g>
	<defs>
		<path id="SVGID_1_" d="M129.2,0c2.32,0,4.2,1.88,4.2,4.2v30c0,2.32-1.88,4.2-4.2,4.2H4.2c-2.32,0-4.2-1.88-4.2-4.2v-30
			C0,1.88,1.88,0,4.2,0H129.2"/>
	</defs>
	<clipPath id="SVGID_2_">
		<use xlink:href="#SVGID_1_"  style="overflow:visible;"/>
	</clipPath>
	<g class="st0">
		<path d="M129.2,39.2H4.2c-2.75,0-5-2.25-5-5v-30c0-2.75,2.25-5,5-5h125c2.75,0,5,2.25,5,5v30C134.2,36.95,131.95,39.2,129.2,39.2z
			"/>
	</g>
</g>
<g id="XMLID_3_">
	<g id="XMLID_4_">
		<g id="XMLID_5_">
			<path id="XMLID_7_" class="st1" d="M30.75,18.87c-0.03-2.75,2.25-4.09,2.36-4.15c-1.29-1.88-3.29-2.14-3.99-2.16
				c-1.68-0.18-3.31,1-4.16,1c-0.87,0-2.19-0.99-3.61-0.96c-1.83,0.03-3.54,1.09-4.47,2.73c-1.93,3.35-0.49,8.27,1.36,10.98
				c0.93,1.33,2.01,2.81,3.43,2.75c1.39-0.06,1.91-0.88,3.58-0.88c1.66,0,2.14,0.88,3.59,0.85c1.49-0.02,2.43-1.33,3.32-2.67
				c1.07-1.52,1.5-3.02,1.52-3.09C33.63,23.26,30.78,22.17,30.75,18.87z"/>
			<path id="XMLID_6_" class="st1" d="M28.02,10.78c0.75-0.93,1.26-2.2,1.11-3.49c-1.08,0.05-2.43,0.75-3.21,1.66
				c-0.69,0.8-1.3,2.12-1.14,3.36C25.99,12.4,27.24,11.7,28.02,10.78z"/>
		</g>
	</g>
	<g>
		<path class="st1" d="M48.28,25.71h-4.73l-1.14,3.36h-2l4.48-12.42h2.08l4.48,12.42h-2.04L48.28,25.71z M44.04,24.16h3.75
			l-1.85-5.45h-0.05L44.04,24.16z"/>
		<path class="st1" d="M61.14,24.54c0,2.81-1.51,4.62-3.78,4.62c-1.29,0-2.31-0.58-2.85-1.58h-0.04v4.48h-1.86V20.01h1.8v1.51h0.03
			c0.52-0.97,1.62-1.6,2.88-1.6C59.62,19.92,61.14,21.73,61.14,24.54z M59.23,24.54c0-1.83-0.95-3.04-2.39-3.04
			c-1.42,0-2.38,1.23-2.38,3.04c0,1.82,0.96,3.05,2.38,3.05C58.28,27.58,59.23,26.39,59.23,24.54z"/>
		<path class="st1" d="M71.1,24.54c0,2.81-1.51,4.62-3.78,4.62c-1.29,0-2.31-0.58-2.85-1.58h-0.04v4.48h-1.86V20.01h1.8v1.51h0.03
			c0.52-0.97,1.62-1.6,2.88-1.6C69.59,19.92,71.1,21.73,71.1,24.54z M69.19,24.54c0-1.83-0.95-3.04-2.39-3.04
			c-1.42,0-2.38,1.23-2.38,3.04c0,1.82,0.96,3.05,2.38,3.05C68.25,27.58,69.19,26.39,69.19,24.54z"/>
		<path class="st1" d="M77.69,25.61c0.14,1.23,1.33,2.04,2.97,2.04c1.57,0,2.69-0.81,2.69-1.92c0-0.96-0.68-1.54-2.29-1.94
			l-1.61-0.39c-2.28-0.55-3.34-1.62-3.34-3.35c0-2.14,1.87-3.61,4.52-3.61c2.62,0,4.42,1.47,4.48,3.61h-1.88
			c-0.11-1.24-1.14-1.99-2.63-1.99s-2.52,0.76-2.52,1.86c0,0.88,0.65,1.39,2.25,1.79l1.37,0.34c2.55,0.6,3.61,1.63,3.61,3.44
			c0,2.32-1.85,3.78-4.79,3.78c-2.75,0-4.61-1.42-4.73-3.67H77.69z"/>
		<path class="st1" d="M89.32,17.87v2.14h1.72v1.47h-1.72v4.99c0,0.78,0.34,1.14,1.1,1.14c0.19,0,0.49-0.03,0.61-0.04v1.46
			c-0.21,0.05-0.62,0.09-1.03,0.09c-1.83,0-2.55-0.69-2.55-2.44v-5.19h-1.32v-1.47h1.32v-2.14H89.32z"/>
		<path class="st1" d="M92.04,24.54c0-2.85,1.68-4.64,4.29-4.64c2.63,0,4.29,1.79,4.29,4.64c0,2.86-1.66,4.64-4.29,4.64
			C93.7,29.18,92.04,27.4,92.04,24.54z M98.74,24.54c0-1.95-0.9-3.11-2.4-3.11s-2.4,1.16-2.4,3.11c0,1.96,0.89,3.11,2.4,3.11
			S98.74,26.5,98.74,24.54z"/>
		<path class="st1" d="M102.16,20.01h1.77v1.54h0.04c0.28-1.02,1.11-1.64,2.18-1.64c0.27,0,0.49,0.04,0.64,0.07v1.74
			c-0.15-0.06-0.47-0.11-0.83-0.11c-1.2,0-1.94,0.81-1.94,2.08v5.37h-1.86V20.01z"/>
		<path class="st1" d="M115.36,26.41c-0.25,1.64-1.85,2.77-3.9,2.77c-2.63,0-4.27-1.76-4.27-4.6c0-2.84,1.64-4.68,4.19-4.68
			c2.5,0,4.08,1.72,4.08,4.47V25h-6.39v0.11c0,1.55,0.97,2.56,2.44,2.56c1.03,0,1.84-0.49,2.09-1.27H115.36z M109.08,23.7h4.53
			c-0.04-1.39-0.93-2.3-2.22-2.3C110.1,21.41,109.17,22.34,109.08,23.7z"/>
	</g>
</g>
<g id="XMLID_2_">
	<g>
		<path class="st1" d="M43.8,7.3c1.77,0,2.81,1.09,2.81,2.96c0,1.91-1.03,3-2.81,3h-2.16V7.3H43.8z M42.58,12.42h1.13
			c1.25,0,1.97-0.78,1.97-2.15c0-1.35-0.73-2.13-1.97-2.13h-1.13V12.42z"/>
		<path class="st1" d="M47.66,11.01c0-1.45,0.81-2.34,2.13-2.34c1.31,0,2.12,0.88,2.12,2.34c0,1.46-0.81,2.34-2.12,2.34
			C48.47,13.35,47.66,12.47,47.66,11.01z M50.99,11.01c0-0.98-0.44-1.55-1.21-1.55c-0.77,0-1.21,0.57-1.21,1.55
			c0,0.98,0.43,1.55,1.21,1.55C50.55,12.56,50.99,11.99,50.99,11.01z"/>
		<path class="st1" d="M57.55,13.27h-0.92L55.7,9.95h-0.07l-0.93,3.32h-0.91l-1.24-4.5h0.9l0.81,3.44h0.07l0.93-3.44h0.85l0.93,3.44
			h0.07l0.8-3.44h0.89L57.55,13.27z"/>
		<path class="st1" d="M59.83,8.76h0.86v0.72h0.07c0.22-0.5,0.67-0.8,1.34-0.8c1,0,1.56,0.6,1.56,1.67v2.92h-0.89v-2.69
			c0-0.72-0.31-1.08-0.97-1.08s-1.08,0.44-1.08,1.14v2.63h-0.89V8.76z"/>
		<path class="st1" d="M65.07,7.01h0.89v6.26h-0.89V7.01z"/>
		<path class="st1" d="M67.2,11.01c0-1.45,0.81-2.34,2.13-2.34c1.31,0,2.12,0.88,2.12,2.34c0,1.46-0.81,2.34-2.12,2.34
			C68,13.35,67.2,12.47,67.2,11.01z M70.53,11.01c0-0.98-0.44-1.55-1.21-1.55c-0.77,0-1.21,0.57-1.21,1.55
			c0,0.98,0.43,1.55,1.21,1.55C70.09,12.56,70.53,11.99,70.53,11.01z"/>
		<path class="st1" d="M72.38,11.99c0-0.81,0.6-1.28,1.67-1.34l1.22-0.07v-0.39c0-0.48-0.31-0.74-0.92-0.74
			c-0.5,0-0.84,0.18-0.94,0.5h-0.86c0.09-0.77,0.82-1.27,1.84-1.27c1.13,0,1.77,0.56,1.77,1.51v3.08H75.3v-0.63h-0.07
			c-0.27,0.45-0.76,0.71-1.35,0.71C73.01,13.34,72.38,12.82,72.38,11.99z M75.27,11.61v-0.38l-1.1,0.07
			c-0.62,0.04-0.9,0.25-0.9,0.65c0,0.41,0.35,0.64,0.83,0.64C74.78,12.59,75.27,12.17,75.27,11.61z"/>
		<path class="st1" d="M77.33,11.01c0-1.42,0.73-2.32,1.87-2.32c0.62,0,1.14,0.29,1.38,0.79h0.07V7.01h0.89v6.26h-0.85v-0.71h-0.07
			c-0.27,0.49-0.79,0.79-1.41,0.79C78.05,13.34,77.33,12.44,77.33,11.01z M78.24,11.01c0,0.96,0.45,1.53,1.2,1.53
			c0.75,0,1.21-0.58,1.21-1.53c0-0.94-0.47-1.53-1.21-1.53C78.7,9.49,78.24,10.07,78.24,11.01z"/>
		<path class="st1" d="M85.21,11.01c0-1.45,0.81-2.34,2.13-2.34c1.31,0,2.12,0.88,2.12,2.34c0,1.46-0.81,2.34-2.12,2.34
			C86.01,13.35,85.21,12.47,85.21,11.01z M88.54,11.01c0-0.98-0.44-1.55-1.21-1.55c-0.77,0-1.21,0.57-1.21,1.55
			c0,0.98,0.43,1.55,1.21,1.55C88.1,12.56,88.54,11.99,88.54,11.01z"/>
		<path class="st1" d="M90.65,8.76h0.86v0.72h0.07c0.22-0.5,0.67-0.8,1.34-0.8c1,0,1.56,0.6,1.56,1.67v2.92h-0.89v-2.69
			c0-0.72-0.31-1.08-0.97-1.08s-1.08,0.44-1.08,1.14v2.63h-0.89V8.76z"/>
		<path class="st1" d="M99.49,7.64v1.14h0.98v0.75h-0.98v2.32c0,0.47,0.19,0.68,0.64,0.68c0.14,0,0.21-0.01,0.34-0.02v0.74
			c-0.14,0.02-0.31,0.05-0.48,0.05c-0.99,0-1.38-0.35-1.38-1.22V9.53h-0.71V8.78h0.71V7.64H99.49z"/>
		<path class="st1" d="M101.68,7.01h0.88v2.48h0.07c0.22-0.5,0.69-0.81,1.37-0.81c0.96,0,1.55,0.61,1.55,1.68v2.91h-0.89v-2.69
			c0-0.72-0.33-1.08-0.96-1.08c-0.73,0-1.13,0.46-1.13,1.14v2.63h-0.89V7.01z"/>
		<path class="st1" d="M110.74,12.05c-0.2,0.81-0.92,1.3-1.95,1.3c-1.29,0-2.08-0.88-2.08-2.32c0-1.44,0.81-2.35,2.08-2.35
			c1.25,0,2.01,0.86,2.01,2.27v0.31h-3.18v0.05c0.03,0.79,0.49,1.29,1.2,1.29c0.54,0,0.91-0.19,1.07-0.55H110.74z M107.61,10.6h2.27
			c-0.02-0.71-0.45-1.17-1.11-1.17C108.12,9.43,107.66,9.9,107.61,10.6z"/>
	</g>
</g>
</svg>
