<?xml version="1.0" encoding="utf-8"?>
<!-- Generator: Adobe Illustrator 24.3.0, SVG Export Plug-In . SVG Version: 6.00 Build 0)  -->
<svg version="1.1" id="Layer_1" xmlns="http://www.w3.org/2000/svg" xmlns:xlink="http://www.w3.org/1999/xlink" x="0px" y="0px"
	 viewBox="0 0 82.2 82.2" style="enable-background:new 0 0 82.2 82.2;" xml:space="preserve">
<style type="text/css">
	.st0{display:none;}
	.st1{display:inline;}
	.st2{fill:#FF9315;}
	.st3{fill:#248F9F;}
	.st4{display:none;fill:#FF9315;}
	.st5{display:none;fill:#248F9F;}
	.st6{display:none;fill:none;stroke:#FF9315;stroke-width:6;stroke-miterlimit:10;}
	.st7{display:none;fill:none;stroke:#248F9F;stroke-width:5;stroke-miterlimit:10;}
	.st8{display:inline;fill:none;stroke:#FF9315;stroke-width:6;stroke-miterlimit:10;}
	.st9{display:inline;fill:#3995A1;}
	.st10{fill:#3995A1;}
</style>
<g class="st0">
	<g class="st1">
		<path class="st2" d="M31.2,11.6c3.6,0,7.1,0.9,10.3,2.7c3.1,1.7,5.6,4.3,7.4,7.3l1.3,2.2l2.4-0.8c1.7-0.5,3.4-0.8,5.1-0.8
			c3.1,0,6.1,0.9,8.6,2.7c4,2.8,6.4,7.1,6.7,12l0.1,1.9l1.7,0.8c5.4,2.5,8.9,8,8.9,13.8c0,1-0.1,2-0.3,3
			c-1.4,7.1-7.7,12.4-15.1,12.4H15.3c-8.6,0-15.5-6.9-15.5-15.4c0-6,3.6-11.5,9.3-13.9l2.3-1L10.9,36c-1.1-6.1,0.5-12.2,4.4-17
			C19.3,14.3,25,11.6,31.2,11.6 M31.2,8.5C16.4,8.5,5.1,21.9,7.7,36.6C1,39.6-3.4,46.2-3.4,53.5C-3.4,63.7,5,72,15.3,72h53.1
			c8.8,0,16.5-6.3,18.2-14.9c0.2-1.2,0.4-2.4,0.4-3.6c0-7.1-4.3-13.6-10.8-16.7C76,31,73,25.7,68.2,22.3C65,20.1,61.4,19,57.7,19
			c-2,0-4.1,0.3-6.1,1C47.4,13,39.7,8.5,31.2,8.5L31.2,8.5z"/>
	</g>
	<g class="st1">
		<path class="st3" d="M30.7,23.5c1.1,0,2.2,0.3,3.2,0.8l1.8,10l-2.4,1.2l-2.6,1.4l1.2,2.7c2.6,5.8,6.4,9.6,12.3,12.2l2.8,1.2
			l1.4-2.7l1.2-2.3l10,1.8c1.1,2,1.1,4.3,0,6.4c-1.2,2.2-3.5,3.6-6,3.6c-7.9,0-15.3-3.1-20.8-8.6C27,45.5,24,38.1,24,30.3
			c0-2.5,1.4-4.8,3.6-6C28.5,23.8,29.6,23.5,30.7,23.5 M30.7,20.3c-1.6,0-3.2,0.4-4.7,1.2c-3.2,1.7-5.3,5.1-5.3,8.8
			c0,18,14.6,32.6,32.7,32.7c3.7,0,7-2,8.8-5.3c1.7-3.2,1.5-7.2-0.5-10.2c-0.2-0.3-0.5-0.5-0.9-0.6l-12.1-2.1c-0.1,0-0.2,0-0.2,0
			c-0.5,0-1,0.3-1.3,0.8l-1.8,3.5c-5.2-2.3-8.4-5.4-10.7-10.6l3.5-1.8c0.5-0.3,0.8-0.9,0.7-1.5L36.9,23c-0.1-0.4-0.3-0.7-0.6-0.9
			C34.6,20.9,32.7,20.3,30.7,20.3L30.7,20.3z"/>
	</g>
</g>
<path class="st4" d="M31.2,8.5C16.4,8.5,5.1,21.9,7.7,36.6C1,39.6-3.4,46.2-3.4,53.5C-3.4,63.7,5,72,15.3,72h53.1
	c8.8,0,16.5-6.3,18.2-14.9c0.2-1.2,0.4-2.4,0.4-3.6c0-7.1-4.3-13.6-10.8-16.7C76,31,73,25.7,68.2,22.3C65,20.1,61.4,19,57.7,19
	c-2,0-4.1,0.3-6.1,1C47.4,13,39.7,8.5,31.2,8.5L31.2,8.5z"/>
<path class="st5" d="M30.7,23.5c1.1,0,2.2,0.3,3.2,0.8l1.8,10l-2.4,1.2l-2.6,1.4l1.2,2.7c2.6,5.8,6.4,9.6,12.3,12.2l2.8,1.2l1.4-2.7
	l1.2-2.3l10,1.8c1.1,2,1.1,4.3,0,6.4c-1.2,2.2-3.5,3.6-6,3.6c-7.9,0-15.3-3.1-20.8-8.6C27,45.5,24,38.1,24,30.3c0-2.5,1.4-4.8,3.6-6
	C28.5,23.8,29.6,23.5,30.7,23.5"/>
<path class="st5" d="M30.7,20.3c-1.6,0-3.2,0.4-4.7,1.2c-3.2,1.7-5.3,5.1-5.3,8.8c0,18,14.6,32.6,32.7,32.7c3.7,0,7-2,8.8-5.3
	c1.7-3.2,1.5-7.2-0.5-10.2c-0.2-0.3-0.5-0.5-0.9-0.6l-12.1-2.1c-0.1,0-0.2,0-0.2,0c-0.5,0-1,0.3-1.3,0.8l-1.8,3.5
	c-5.2-2.3-8.4-5.4-10.7-10.6l3.5-1.8c0.5-0.3,0.8-0.9,0.7-1.5L36.9,23c-0.1-0.4-0.3-0.7-0.6-0.9C34.6,20.9,32.7,20.3,30.7,20.3
	L30.7,20.3z"/>
<path class="st4" d="M31.2,11.6c3.6,0,7.1,0.9,10.3,2.7c3.1,1.7,5.6,4.3,7.4,7.3l1.3,2.2l2.4-0.8c1.7-0.5,3.4-0.8,5.1-0.8
	c3.1,0,6.1,0.9,8.6,2.7c4,2.8,6.4,7.1,6.7,12l0.1,1.9l1.7,0.8c5.4,2.5,8.9,8,8.9,13.8c0,1-0.1,2-0.3,3c-1.4,7.1-7.7,12.4-15.1,12.4
	H15.3c-8.6,0-15.5-6.9-15.5-15.4c0-6,3.6-11.5,9.3-13.9l2.3-1L10.9,36c-1.1-6.1,0.5-12.2,4.4-17C19.3,14.3,25,11.6,31.2,11.6
	 M31.9,25.5c-1.3,0-2.6,0.3-3.8,0.9c-2.6,1.4-4.3,4.1-4.3,7.1c0,14.5,11.8,26.3,26.3,26.3c3,0,5.7-1.6,7.1-4.3
	c1.4-2.6,1.2-5.8-0.4-8.2c-0.2-0.3-0.4-0.4-0.8-0.5l-9.7-1.7c-0.1,0-0.1,0-0.2,0c-0.4,0-0.8,0.2-1,0.6l-1.4,2.8
	c-4.2-1.8-6.8-4.4-8.6-8.5l2.8-1.5c0.4-0.2,0.7-0.7,0.6-1.2l-1.7-9.7c-0.1-0.3-0.2-0.6-0.5-0.8C35.1,25.9,33.5,25.5,31.9,25.5
	L31.9,25.5z"/>
<path class="st4" d="M31.2,11.6c3.6,0,7.1,0.9,10.3,2.7c3.1,1.7,5.6,4.3,7.4,7.3l1.3,2.2l2.4-0.8c1.7-0.5,3.4-0.8,5.1-0.8
	c3.1,0,6.1,0.9,8.6,2.7c4,2.8,6.4,7.1,6.7,12l0.1,1.9l1.7,0.8c5.4,2.5,8.9,8,8.9,13.8c0,1-0.1,2-0.3,3c-1.4,7.1-7.7,12.4-15.1,12.4
	H15.3c-8.6,0-15.5-6.9-15.5-15.4c0-6,3.6-11.5,9.3-13.9l2.3-1L10.9,36c-1.1-6.1,0.5-12.2,4.4-17C19.3,14.3,25,11.6,31.2,11.6
	 M31.9,25.5c-1.3,0-2.6,0.3-3.8,0.9c-2.6,1.4-4.3,4.1-4.3,7.1c0,14.5,11.8,26.3,26.3,26.3c3,0,5.7-1.6,7.1-4.3
	c1.4-2.6,1.2-5.8-0.4-8.2c-0.2-0.3-0.4-0.4-0.8-0.5l-9.7-1.7c-0.1,0-0.1,0-0.2,0c-0.4,0-0.8,0.2-1,0.6l-1.4,2.8
	c-4.2-1.8-6.8-4.4-8.6-8.5l2.8-1.5c0.4-0.2,0.7-0.7,0.6-1.2l-1.7-9.7c-0.1-0.3-0.2-0.6-0.5-0.8C35.1,25.9,33.5,25.5,31.9,25.5
	L31.9,25.5z"/>
<path class="st6" d="M31.2,11.6c3.6,0,7.1,0.9,10.3,2.7c3.1,1.7,5.6,4.3,7.4,7.3l1.3,2.2l2.4-0.8c1.7-0.5,3.4-0.8,5.1-0.8
	c3.1,0,6.1,0.9,8.6,2.7c4,2.8,6.4,7.1,6.7,12l0.1,1.9l1.7,0.8c5.4,2.5,8.9,8,8.9,13.8c0,1-0.1,2-0.3,3c-1.4,7.1-7.7,12.4-15.1,12.4
	H15.3c-8.6,0-15.5-6.9-15.5-15.4c0-6,3.6-11.5,9.3-13.9l2.3-1L10.9,36c-1.1-6.1,0.5-12.2,4.4-17C19.3,14.3,25,11.6,31.2,11.6
	 M31.9,24.5c-1.3,0-2.6,0.3-3.8,0.9c-2.6,1.4-4.3,4.1-4.3,7.1c0,14.5,11.8,26.3,26.3,26.3c3,0,5.7-1.6,7.1-4.3
	c1.4-2.6,1.2-5.8-0.4-8.2c-0.2-0.3-0.4-0.4-0.8-0.5l-9.7-1.7c-0.1,0-0.1,0-0.2,0c-0.4,0-0.8,0.2-1,0.6l-1.4,2.8
	c-4.2-1.8-6.8-4.4-8.6-8.5l2.8-1.5c0.4-0.2,0.7-0.7,0.6-1.2l-1.7-9.7c-0.1-0.3-0.2-0.6-0.5-0.8C35.1,24.9,33.5,24.5,31.9,24.5
	L31.9,24.5z"/>
<path class="st7" d="M31.9,24.5c-1.3,0-2.6,0.3-3.8,0.9c-2.6,1.4-4.3,4.1-4.3,7.1c0,14.5,11.8,26.3,26.3,26.3c3,0,5.7-1.6,7.1-4.3
	c1.4-2.6,1.2-5.8-0.4-8.2c-0.2-0.3-0.4-0.4-0.8-0.5l-9.7-1.7c-0.1,0-0.1,0-0.2,0c-0.4,0-0.8,0.2-1,0.6l-1.4,2.8
	c-4.2-1.8-6.8-4.4-8.6-8.5l2.8-1.5c0.4-0.2,0.7-0.7,0.6-1.2l-1.7-9.7c-0.1-0.3-0.2-0.6-0.5-0.8C35.1,24.9,33.5,24.5,31.9,24.5
	L31.9,24.5z"/>
<path class="st5" d="M32.8,26.2c-1.2,0-2.3,0.3-3.4,0.8c-2.4,1.3-3.8,3.7-3.8,6.4c0,13.1,10.6,23.7,23.7,23.7c2.7,0,5.1-1.5,6.4-3.8
	c1.3-2.4,1.1-5.2-0.4-7.4c-0.2-0.2-0.4-0.4-0.7-0.4l-8.8-1.6c-0.1,0-0.1,0-0.2,0c-0.4,0-0.7,0.2-0.9,0.6l-1.3,2.6
	c-3.8-1.7-6.1-3.9-7.7-7.7l2.6-1.3c0.4-0.2,0.6-0.7,0.5-1.1l-1.6-8.8c-0.1-0.3-0.2-0.5-0.4-0.7C35.7,26.6,34.2,26.2,32.8,26.2
	L32.8,26.2z"/>
<path id="Shape_1_" class="st5" d="M35.7,51.4c4.9,4.4,11,7.3,17.6,8.2c0.8,0.1,1.5-0.3,1.8-1l3-6c0.4-0.8,0.1-1.9-0.7-2.4h0
	l-5.9-3.7c-0.7-0.4-1.7-0.3-2.3,0.3l-2.1,2.1c-0.4,0.4-1,0.6-1.6,0.5c-2-0.4-3.9-1.2-5.5-2.4c0,0-0.8-0.6-2-1.8
	c-1.1-1.1-1.9-2.1-1.9-2.1c-1.2-1.6-2-3.5-2.4-5.5c-0.1-0.6,0.1-1.2,0.5-1.6l2.1-2.1c0.6-0.6,0.7-1.5,0.3-2.3L33,25.8
	c-0.5-0.8-1.5-1.1-2.4-0.7l-6,3c-0.7,0.3-1.1,1.1-1,1.8c0.9,6.6,3.7,12.7,8.2,17.6c0,0,0.7,0.8,1.7,1.8
	C34.7,50.4,35.7,51.4,35.7,51.4z"/>
<g class="st0">
	<path class="st8" d="M31.2,11.6c3.6,0,7.1,0.9,10.3,2.7c3.1,1.7,5.6,4.3,7.4,7.3l1.3,2.2l2.4-0.8c1.7-0.5,3.4-0.8,5.1-0.8
		c3.1,0,6.1,0.9,8.6,2.7c4,2.8,6.4,7.1,6.7,12l0.1,1.9l1.7,0.8c5.4,2.5,8.9,8,8.9,13.8c0,1-0.1,2-0.3,3c-1.4,7.1-7.7,12.4-15.1,12.4
		H15.3c-8.6,0-15.5-6.9-15.5-15.4c0-6,3.6-11.5,9.3-13.9l2.3-1L10.9,36c-1.1-6.1,0.5-12.2,4.4-17C19.3,14.3,25,11.6,31.2,11.6"/>
	<path id="Shape_2_" class="st9" d="M35.7,51.4c4.9,4.4,11,7.3,17.6,8.2c0.8,0.1,1.5-0.3,1.8-1l3-6c0.4-0.8,0.1-1.9-0.7-2.4h0
		l-5.9-3.7c-0.7-0.4-1.7-0.3-2.3,0.3l-2.1,2.1c-0.4,0.4-1,0.6-1.6,0.5c-2-0.4-3.9-1.2-5.5-2.4c0,0-0.8-0.6-2-1.8
		c-1.1-1.1-1.9-2.1-1.9-2.1c-1.2-1.6-2-3.5-2.4-5.5c-0.1-0.6,0.1-1.2,0.5-1.6l2.1-2.1c0.6-0.6,0.7-1.5,0.3-2.3L33,25.8
		c-0.5-0.8-1.5-1.1-2.4-0.7l-6,3c-0.7,0.3-1.1,1.1-1,1.8c0.9,6.6,3.7,12.7,8.2,17.6c0,0,0.7,0.8,1.7,1.8
		C34.7,50.4,35.7,51.4,35.7,51.4z"/>
</g>
<g>
	<path class="st2" d="M65.4,71.2H16.9C7.6,71.2,0,63.3,0,53.7c0-6.8,4-13.1,10.1-15.9l0.1-0.1l0-0.1C9,31,10.7,24.3,14.8,19.1
		C19,14,25,11,31.4,11c3.8,0,7.5,1,10.7,3c3.2,1.9,5.9,4.6,7.8,7.9l0.1,0.1l0.1,0c5.2-1.8,10.6-1,15,2.2c4.4,3.1,7,8.1,7.3,13.6
		l0,0.1l0.1,0c5.9,2.9,9.7,9.1,9.7,15.7c0,1.1-0.1,2.3-0.3,3.4C80.3,65.3,73.4,71.2,65.4,71.2z M31.4,16.7c-4.8,0-9.3,2.2-12.4,6.1
		c-3.1,3.8-4.3,8.9-3.5,13.8l0.8,4.6L12.3,43C8.2,45,5.5,49.1,5.5,53.7c0,6.5,5.1,11.8,11.4,11.8h48.5c5.4,0,10-4,11.1-9.5
		c0.1-0.8,0.2-1.5,0.2-2.3c0-4.4-2.6-8.6-6.6-10.5L67,41.6l-0.1-3.6c-0.2-3.7-1.9-7-4.9-9.2c-2.9-2.1-6.6-2.6-10.2-1.4l-4.3,1.4
		l-2.3-4c-1.4-2.5-3.4-4.5-5.8-5.9C37,17.5,34.3,16.7,31.4,16.7z"/>
	<path id="Shape_3_" class="st10" d="M35.6,51.8c4.5,4.2,10.1,6.9,16.1,7.8c0.7,0.1,1.4-0.3,1.7-0.9l2.7-5.7
		c0.4-0.8,0.1-1.8-0.6-2.3h0L50,47.2c-0.7-0.4-1.5-0.3-2.1,0.2l-1.9,2c-0.4,0.4-0.9,0.6-1.4,0.5c-1.8-0.4-3.5-1.1-5-2.3
		c0,0-0.8-0.6-1.8-1.7c-1-1.1-1.7-2-1.7-2c-1.1-1.6-1.9-3.3-2.2-5.3c-0.1-0.5,0.1-1.1,0.5-1.5l1.9-2c0.5-0.6,0.6-1.5,0.2-2.1
		l-3.4-5.6c-0.5-0.8-1.4-1-2.2-0.6l-5.4,2.8c-0.6,0.3-1,1-0.9,1.8c0.8,6.2,3.4,12.1,7.5,16.8c0,0,0.6,0.7,1.6,1.7
		C34.6,50.8,35.6,51.8,35.6,51.8z"/>
</g>
</svg>
