<?xml version="1.0" encoding="utf-8"?>
<!-- Generator: Adobe Illustrator 24.3.0, SVG Export Plug-In . SVG Version: 6.00 Build 0)  -->
<svg version="1.1" id="Layer_1" xmlns="http://www.w3.org/2000/svg" xmlns:xlink="http://www.w3.org/1999/xlink" x="0px" y="0px"
	 viewBox="0 0 82.2 82.2" style="enable-background:new 0 0 82.2 82.2;" xml:space="preserve">
<style type="text/css">
	.st0{display:none;}
	.st1{display:inline;}
	.st2{fill:#248F9F;}
	.st3{fill:#FF9315;}
	.st4{display:none;fill:#248F9F;}
	.st5{display:none;fill:#FF9315;}
	.st6{display:none;fill:#3995A1;}
	.st7{display:none;fill:none;stroke:#3995A1;stroke-width:3.5;stroke-miterlimit:10;}
	.st8{fill:#3995A1;}
</style>
<g class="st0">
	<g class="st1">
		<path class="st2" d="M41.1,35.7c0.7,0,1.5,0.2,2.2,0.5c1.3,0.6,2.4,1.6,2.9,3c0.5,1.3,0.5,2.8-0.1,4.1c-0.6,1.3-1.6,2.4-3,2.9
			c-0.7,0.2-1.3,0.4-2,0.4c-2.2,0-4.2-1.3-5-3.4c-0.5-1.3-0.5-2.8,0.1-4.1c0.6-1.3,1.6-2.4,3-2.9C39.8,35.8,40.4,35.7,41.1,35.7
			 M41.1,33.2c-1,0-2,0.2-2.9,0.6c-2,0.8-3.5,2.3-4.4,4.2C33,39.9,33,42,33.7,44c0.6,1.5,1.6,2.8,3,3.7c1.3,0.9,2.8,1.3,4.4,1.3
			c1,0,2-0.2,2.9-0.5c2-0.8,3.5-2.3,4.4-4.2c0.8-1.9,0.9-4.1,0.1-6c-0.8-2-2.3-3.5-4.2-4.4C43.3,33.4,42.2,33.2,41.1,33.2L41.1,33.2
			z"/>
	</g>
	<g class="st1">
		<path class="st3" d="M35.3,20.5c0.1,0,0.2,0,0.2,0.1c0.2,0.1,0.3,0.2,0.3,0.3l0.5,1.2l0.7,1.8l1.9-0.2c0.7-0.1,1.4-0.1,2.1-0.1
			c1,0,1.9,0.1,2.9,0.2l1.9,0.3l0.8-1.8l0.5-1.2c0.1-0.2,0.2-0.3,0.3-0.3c0.1,0,0.2,0,0.2,0c0.1,0,0.2,0,0.2,0.1l3.4,1.5
			c0.2,0.1,0.3,0.2,0.3,0.3s0.1,0.3,0,0.5l-0.5,1.2l-0.8,1.8l1.5,1.2c1.3,1,2.5,2.2,3.5,3.6l1.1,1.6l1.8-0.7l1.2-0.5
			c0.1,0,0.2,0,0.2,0c0.1,0,0.2,0,0.2,0.1c0.2,0.1,0.3,0.2,0.3,0.3l1.4,3.5c0.1,0.3,0,0.7-0.3,0.8l-1.2,0.5L58.3,37l0.2,1.9
			c0.2,1.6,0.2,3.3-0.1,5l-0.3,1.9l1.8,0.8l1.2,0.5c0.2,0.1,0.3,0.2,0.3,0.3c0,0.1,0.1,0.3,0,0.5l-1.5,3.4c-0.1,0.2-0.2,0.3-0.3,0.3
			c-0.1,0-0.2,0-0.2,0c-0.1,0-0.2,0-0.2-0.1l-1.2-0.5l-1.8-0.8L55,51.9c-1,1.3-2.2,2.5-3.6,3.5l-1.6,1.1l0.7,1.8l0.3,0.8l0,0
			l0.2,0.4c0.1,0.2,0.1,0.3,0,0.5c-0.1,0.2-0.2,0.3-0.3,0.3l-3.5,1.4c-0.1,0-0.1,0-0.2,0c-0.2,0-0.5-0.1-0.6-0.4l-0.5-1.2l-0.7-1.8
			l-1.9,0.2c-0.7,0.1-1.4,0.1-2.1,0.1c-1,0-1.9-0.1-2.9-0.2l-1.9-0.3l-0.8,1.8L35,61.1c-0.1,0.3-0.4,0.4-0.6,0.4
			c-0.1,0-0.2,0-0.2-0.1l-3.4-1.5c-0.3-0.1-0.5-0.5-0.3-0.8l0.5-1.2l0.8-1.8L30.3,55c-1.3-1-2.5-2.2-3.5-3.6l-1.1-1.6l-1.8,0.7
			L22.7,51c-0.1,0-0.2,0-0.2,0c-0.1,0-0.2,0-0.2-0.1c-0.2-0.1-0.3-0.2-0.3-0.3l-1.4-3.5c-0.1-0.3,0-0.7,0.3-0.8l1.2-0.5l1.8-0.7
			l-0.2-1.9c-0.2-1.6-0.2-3.3,0.1-5l0.3-1.9l-1.8-0.8l-1.2-0.5c-0.2-0.1-0.3-0.2-0.3-0.3c-0.1-0.2-0.1-0.3,0-0.5l1.5-3.4
			c0.1-0.2,0.2-0.3,0.3-0.3c0.1,0,0.2,0,0.2,0c0.1,0,0.2,0,0.2,0.1l1.2,0.5l1.8,0.8l1.2-1.5c1-1.3,2.2-2.5,3.6-3.5l1.6-1.1l-0.7-1.8
			l-0.5-1.2c-0.1-0.2-0.1-0.3,0-0.5c0.1-0.2,0.2-0.3,0.3-0.3l3.5-1.4C35.1,20.5,35.2,20.5,35.3,20.5 M35.3,18
			c-0.4,0-0.8,0.1-1.1,0.2l-3.5,1.4c-0.8,0.3-1.4,0.9-1.7,1.6s-0.3,1.6,0,2.4l0.5,1.2c-1.5,1.1-2.9,2.4-4.1,4l-1.2-0.5
			c-0.4-0.2-0.8-0.3-1.2-0.3c-0.4,0-0.8,0.1-1.1,0.2c-0.8,0.3-1.4,0.9-1.7,1.6l-1.5,3.4c-0.3,0.8-0.3,1.6,0,2.4
			c0.3,0.8,0.9,1.4,1.6,1.7l1.2,0.5c-0.3,1.9-0.4,3.8-0.1,5.7L20,44c-1.6,0.6-2.4,2.4-1.8,4l1.4,3.5c0.3,0.8,0.9,1.4,1.6,1.7
			c0.4,0.2,0.8,0.3,1.2,0.3c0.4,0,0.8-0.1,1.1-0.2l1.2-0.5c1.1,1.5,2.4,2.9,4,4.1l-0.5,1.2c-0.7,1.6,0,3.4,1.6,4.1l3.4,1.5
			c0.4,0.2,0.8,0.3,1.2,0.3c1.2,0,2.3-0.7,2.8-1.9l0.5-1.2c1.1,0.2,2.2,0.3,3.3,0.3c0.8,0,1.6-0.1,2.4-0.2l0.5,1.2
			c0.5,1.2,1.7,2,2.9,2c0.4,0,0.8-0.1,1.1-0.2l3.5-1.4c0.8-0.3,1.4-0.9,1.7-1.6c0.3-0.8,0.3-1.6,0-2.4l0,0l-0.5-1.2
			c1.5-1.1,2.9-2.4,4.1-4l1.2,0.5c0.4,0.2,0.8,0.3,1.2,0.3c0.4,0,0.8-0.1,1.1-0.2c0.8-0.3,1.4-0.9,1.7-1.6l1.5-3.4
			c0.7-1.6,0-3.4-1.6-4.1l-1.2-0.5c0.3-1.9,0.4-3.8,0.1-5.7l1.2-0.5c1.6-0.6,2.4-2.4,1.8-4l-1.4-3.5c-0.3-0.8-0.9-1.4-1.6-1.7
			c-0.4-0.2-0.8-0.3-1.2-0.3c-0.4,0-0.8,0.1-1.1,0.2l-1.2,0.5c-1.1-1.5-2.4-2.9-4-4.1l0.5-1.2c0.7-1.6,0-3.4-1.6-4.1L49,18.5
			c-0.4-0.2-0.8-0.3-1.2-0.3c-0.4,0-0.8,0.1-1.1,0.2c-0.8,0.3-1.4,0.9-1.7,1.6l-0.5,1.2c-1.1-0.2-2.2-0.3-3.3-0.3
			c-0.8,0-1.6,0.1-2.4,0.2L38.2,20c-0.3-0.8-0.9-1.4-1.6-1.7C36.1,18.1,35.7,18,35.3,18L35.3,18z"/>
	</g>
</g>
<path class="st4" d="M41.1,35.7c0.7,0,1.5,0.2,2.2,0.5c1.3,0.6,2.4,1.6,2.9,3c0.5,1.3,0.5,2.8-0.1,4.1c-0.6,1.3-1.6,2.4-3,2.9
	c-0.7,0.2-1.3,0.4-2,0.4c-2.2,0-4.2-1.3-5-3.4c-0.5-1.3-0.5-2.8,0.1-4.1c0.6-1.3,1.6-2.4,3-2.9C39.8,35.8,40.4,35.7,41.1,35.7"/>
<path class="st5" d="M35.3,20.5c0.1,0,0.2,0,0.2,0.1c0.2,0.1,0.3,0.2,0.3,0.3l0.5,1.2l0.7,1.8l1.9-0.2c0.7-0.1,1.4-0.1,2.1-0.1
	c1,0,1.9,0.1,2.9,0.2l1.9,0.3l0.8-1.8l0.5-1.2c0.1-0.2,0.2-0.3,0.3-0.3c0.1,0,0.2,0,0.2,0c0.1,0,0.2,0,0.2,0.1l3.4,1.5
	c0.2,0.1,0.3,0.2,0.3,0.3s0.1,0.3,0,0.5l-0.5,1.2l-0.8,1.8l1.5,1.2c1.3,1,2.5,2.2,3.5,3.6l1.1,1.6l1.8-0.7l1.2-0.5
	c0.1,0,0.2,0,0.2,0c0.1,0,0.2,0,0.2,0.1c0.2,0.1,0.3,0.2,0.3,0.3l1.4,3.5c0.1,0.3,0,0.7-0.3,0.8l-1.2,0.5L58.3,37l0.2,1.9
	c0.2,1.6,0.2,3.3-0.1,5l-0.3,1.9l1.8,0.8l1.2,0.5c0.2,0.1,0.3,0.2,0.3,0.3c0,0.1,0.1,0.3,0,0.5l-1.5,3.4c-0.1,0.2-0.2,0.3-0.3,0.3
	c-0.1,0-0.2,0-0.2,0c-0.1,0-0.2,0-0.2-0.1l-1.2-0.5l-1.8-0.8L55,51.9c-1,1.3-2.2,2.5-3.6,3.5l-1.6,1.1l0.7,1.8l0.3,0.8l0,0l0.2,0.4
	c0.1,0.2,0.1,0.3,0,0.5c-0.1,0.2-0.2,0.3-0.3,0.3l-3.5,1.4c-0.1,0-0.1,0-0.2,0c-0.2,0-0.5-0.1-0.6-0.4l-0.5-1.2l-0.7-1.8l-1.9,0.2
	c-0.7,0.1-1.4,0.1-2.1,0.1c-1,0-1.9-0.1-2.9-0.2l-1.9-0.3l-0.8,1.8L35,61.1c-0.1,0.3-0.4,0.4-0.6,0.4c-0.1,0-0.2,0-0.2-0.1l-3.4-1.5
	c-0.3-0.1-0.5-0.5-0.3-0.8l0.5-1.2l0.8-1.8L30.3,55c-1.3-1-2.5-2.2-3.5-3.6l-1.1-1.6l-1.8,0.7L22.7,51c-0.1,0-0.2,0-0.2,0
	c-0.1,0-0.2,0-0.2-0.1c-0.2-0.1-0.3-0.2-0.3-0.3l-1.4-3.5c-0.1-0.3,0-0.7,0.3-0.8l1.2-0.5l1.8-0.7l-0.2-1.9c-0.2-1.6-0.2-3.3,0.1-5
	l0.3-1.9l-1.8-0.8l-1.2-0.5c-0.2-0.1-0.3-0.2-0.3-0.3c-0.1-0.2-0.1-0.3,0-0.5l1.5-3.4c0.1-0.2,0.2-0.3,0.3-0.3c0.1,0,0.2,0,0.2,0
	c0.1,0,0.2,0,0.2,0.1l1.2,0.5l1.8,0.8l1.2-1.5c1-1.3,2.2-2.5,3.6-3.5l1.6-1.1l-0.7-1.8l-0.5-1.2c-0.1-0.2-0.1-0.3,0-0.5
	c0.1-0.2,0.2-0.3,0.3-0.3l3.5-1.4C35.1,20.5,35.2,20.5,35.3,20.5"/>
<path class="st5" d="M62.1,44.9l-1.2-0.5c0.3-1.9,0.4-3.8,0.1-5.7l1.2-0.5c1.6-0.6,2.4-2.4,1.8-4l-1.4-3.5c-0.3-0.8-0.9-1.4-1.6-1.7
	c-0.4-0.2-0.8-0.3-1.2-0.3c-0.4,0-0.8,0.1-1.1,0.2l-1.2,0.5c-1.1-1.5-2.4-2.9-4-4.1l0.5-1.2c0.7-1.6,0-3.4-1.6-4.1L49,18.5
	c-0.4-0.2-0.8-0.3-1.2-0.3c-0.4,0-0.8,0.1-1.1,0.2c-0.8,0.3-1.4,0.9-1.7,1.6l-0.5,1.2c-1.1-0.2-2.2-0.3-3.3-0.3
	c-0.8,0-1.6,0.1-2.4,0.2L38.2,20c-0.3-0.8-0.9-1.4-1.6-1.7c-0.4-0.2-0.8-0.3-1.2-0.3c-0.4,0-0.8,0.1-1.1,0.2l-3.5,1.4
	c-0.8,0.3-1.4,0.9-1.7,1.6c-0.3,0.8-0.3,1.6,0,2.4l0.5,1.2c-1.5,1.1-2.9,2.4-4.1,4l-1.2-0.5c-0.4-0.2-0.8-0.3-1.2-0.3
	c-0.4,0-0.8,0.1-1.1,0.2c-0.8,0.3-1.4,0.9-1.7,1.6l-1.5,3.4c-0.3,0.8-0.3,1.6,0,2.4c0.3,0.8,0.9,1.4,1.6,1.7l1.2,0.5
	c-0.3,1.9-0.4,3.8-0.1,5.7L20,44c-1.6,0.6-2.4,2.4-1.8,4l1.4,3.5c0.3,0.8,0.9,1.4,1.6,1.7c0.4,0.2,0.8,0.3,1.2,0.3
	c0.4,0,0.8-0.1,1.1-0.2l1.2-0.5c1.1,1.5,2.4,2.9,4,4.1l-0.5,1.2c-0.7,1.6,0,3.4,1.6,4.1l3.4,1.5c0.4,0.2,0.8,0.3,1.2,0.3
	c1.2,0,2.3-0.7,2.8-1.9l0.5-1.2c1.1,0.2,2.2,0.3,3.3,0.3c0.8,0,1.6-0.1,2.4-0.2l0.5,1.2c0.5,1.2,1.7,2,2.9,2c0.4,0,0.8-0.1,1.1-0.2
	l3.5-1.4c0.8-0.3,1.4-0.9,1.7-1.6c0.3-0.8,0.3-1.6,0-2.4l-0.5-1.2c1.5-1.1,2.9-2.4,4.1-4l1.2,0.5c0.4,0.2,0.8,0.3,1.2,0.3
	c0.4,0,0.8-0.1,1.1-0.2c0.8-0.3,1.4-0.9,1.7-1.6l1.5-3.4C64.4,47.4,63.7,45.6,62.1,44.9z M48.3,44.3c-0.8,1.9-2.4,3.4-4.4,4.2
	c-0.9,0.4-1.9,0.5-2.9,0.5c-1.6,0-3.1-0.5-4.4-1.3c-1.3-0.9-2.4-2.2-3-3.7c-0.8-2-0.7-4.1,0.1-6c0.9-1.9,2.4-3.4,4.4-4.2
	c0.9-0.4,1.9-0.6,2.9-0.6c1.1,0,2.2,0.2,3.2,0.7c1.9,0.9,3.4,2.4,4.2,4.4C49.2,40.2,49.2,42.3,48.3,44.3z"/>
<g class="st0">
	<g class="st1">
		<path class="st2" d="M41.1,35.7c0.7,0,1.5,0.2,2.2,0.5c1.3,0.6,2.4,1.6,2.9,3c0.5,1.3,0.5,2.8-0.1,4.1c-0.6,1.3-1.6,2.4-3,2.9
			c-0.7,0.2-1.3,0.4-2,0.4c-2.2,0-4.2-1.3-5-3.4c-0.5-1.3-0.5-2.8,0.1-4.1c0.6-1.3,1.6-2.4,3-2.9C39.8,35.8,40.4,35.7,41.1,35.7
			 M41.1,33.2c-1,0-2,0.2-2.9,0.6c-2,0.8-3.5,2.3-4.4,4.2C33,39.9,33,42,33.7,44c0.6,1.5,1.6,2.8,3,3.7c1.3,0.9,2.8,1.3,4.4,1.3
			c1,0,2-0.2,2.9-0.5c2-0.8,3.5-2.3,4.4-4.2c0.8-1.9,0.9-4.1,0.1-6c-0.8-2-2.3-3.5-4.2-4.4C43.3,33.4,42.2,33.2,41.1,33.2L41.1,33.2
			z"/>
	</g>
	<g class="st1">
		<path class="st3" d="M35.3,20.5c0.1,0,0.2,0,0.2,0.1c0.2,0.1,0.3,0.2,0.3,0.3l0.5,1.2l0.7,1.8l1.9-0.2c0.7-0.1,1.4-0.1,2.1-0.1
			c1,0,1.9,0.1,2.9,0.2l1.9,0.3l0.8-1.8l0.5-1.2c0.1-0.2,0.2-0.3,0.3-0.3c0.1,0,0.2,0,0.2,0c0.1,0,0.2,0,0.2,0.1l3.4,1.5
			c0.2,0.1,0.3,0.2,0.3,0.3s0.1,0.3,0,0.5l-0.5,1.2l-0.8,1.8l1.5,1.2c1.3,1,2.5,2.2,3.5,3.6l1.1,1.6l1.8-0.7l1.2-0.5
			c0.1,0,0.2,0,0.2,0c0.1,0,0.2,0,0.2,0.1c0.2,0.1,0.3,0.2,0.3,0.3l1.4,3.5c0.1,0.3,0,0.7-0.3,0.8l-1.2,0.5L58.3,37l0.2,1.9
			c0.2,1.6,0.2,3.3-0.1,5l-0.3,1.9l1.8,0.8l1.2,0.5c0.2,0.1,0.3,0.2,0.3,0.3c0,0.1,0.1,0.3,0,0.5l-1.5,3.4c-0.1,0.2-0.2,0.3-0.3,0.3
			c-0.1,0-0.2,0-0.2,0c-0.1,0-0.2,0-0.2-0.1l-1.2-0.5l-1.8-0.8L55,51.9c-1,1.3-2.2,2.5-3.6,3.5l-1.6,1.1l0.7,1.8l0.3,0.8l0,0
			l0.2,0.4c0.1,0.2,0.1,0.3,0,0.5c-0.1,0.2-0.2,0.3-0.3,0.3l-3.5,1.4c-0.1,0-0.1,0-0.2,0c-0.2,0-0.5-0.1-0.6-0.4l-0.5-1.2l-0.7-1.8
			l-1.9,0.2c-0.7,0.1-1.4,0.1-2.1,0.1c-1,0-1.9-0.1-2.9-0.2l-1.9-0.3l-0.8,1.8L35,61.1c-0.1,0.3-0.4,0.4-0.6,0.4
			c-0.1,0-0.2,0-0.2-0.1l-3.4-1.5c-0.3-0.1-0.5-0.5-0.3-0.8l0.5-1.2l0.8-1.8L30.3,55c-1.3-1-2.5-2.2-3.5-3.6l-1.1-1.6l-1.8,0.7
			L22.7,51c-0.1,0-0.2,0-0.2,0c-0.1,0-0.2,0-0.2-0.1c-0.2-0.1-0.3-0.2-0.3-0.3l-1.4-3.5c-0.1-0.3,0-0.7,0.3-0.8l1.2-0.5l1.8-0.7
			l-0.2-1.9c-0.2-1.6-0.2-3.3,0.1-5l0.3-1.9l-1.8-0.8l-1.2-0.5c-0.2-0.1-0.3-0.2-0.3-0.3c-0.1-0.2-0.1-0.3,0-0.5l1.5-3.4
			c0.1-0.2,0.2-0.3,0.3-0.3c0.1,0,0.2,0,0.2,0c0.1,0,0.2,0,0.2,0.1l1.2,0.5l1.8,0.8l1.2-1.5c1-1.3,2.2-2.5,3.6-3.5l1.6-1.1l-0.7-1.8
			l-0.5-1.2c-0.1-0.2-0.1-0.3,0-0.5c0.1-0.2,0.2-0.3,0.3-0.3l3.5-1.4C35.1,20.5,35.2,20.5,35.3,20.5 M35.3,18
			c-0.4,0-0.8,0.1-1.1,0.2l-3.5,1.4c-0.8,0.3-1.4,0.9-1.7,1.6s-0.3,1.6,0,2.4l0.5,1.2c-1.5,1.1-2.9,2.4-4.1,4l-1.2-0.5
			c-0.4-0.2-0.8-0.3-1.2-0.3c-0.4,0-0.8,0.1-1.1,0.2c-0.8,0.3-1.4,0.9-1.7,1.6l-1.5,3.4c-0.3,0.8-0.3,1.6,0,2.4
			c0.3,0.8,0.9,1.4,1.6,1.7l1.2,0.5c-0.3,1.9-0.4,3.8-0.1,5.7L20,44c-1.6,0.6-2.4,2.4-1.8,4l1.4,3.5c0.3,0.8,0.9,1.4,1.6,1.7
			c0.4,0.2,0.8,0.3,1.2,0.3c0.4,0,0.8-0.1,1.1-0.2l1.2-0.5c1.1,1.5,2.4,2.9,4,4.1l-0.5,1.2c-0.7,1.6,0,3.4,1.6,4.1l3.4,1.5
			c0.4,0.2,0.8,0.3,1.2,0.3c1.2,0,2.3-0.7,2.8-1.9l0.5-1.2c1.1,0.2,2.2,0.3,3.3,0.3c0.8,0,1.6-0.1,2.4-0.2l0.5,1.2
			c0.5,1.2,1.7,2,2.9,2c0.4,0,0.8-0.1,1.1-0.2l3.5-1.4c0.8-0.3,1.4-0.9,1.7-1.6c0.3-0.8,0.3-1.6,0-2.4l0,0l-0.5-1.2
			c1.5-1.1,2.9-2.4,4.1-4l1.2,0.5c0.4,0.2,0.8,0.3,1.2,0.3c0.4,0,0.8-0.1,1.1-0.2c0.8-0.3,1.4-0.9,1.7-1.6l1.5-3.4
			c0.7-1.6,0-3.4-1.6-4.1l-1.2-0.5c0.3-1.9,0.4-3.8,0.1-5.7l1.2-0.5c1.6-0.6,2.4-2.4,1.8-4l-1.4-3.5c-0.3-0.8-0.9-1.4-1.6-1.7
			c-0.4-0.2-0.8-0.3-1.2-0.3c-0.4,0-0.8,0.1-1.1,0.2l-1.2,0.5c-1.1-1.5-2.4-2.9-4-4.1l0.5-1.2c0.7-1.6,0-3.4-1.6-4.1L49,18.5
			c-0.4-0.2-0.8-0.3-1.2-0.3c-0.4,0-0.8,0.1-1.1,0.2c-0.8,0.3-1.4,0.9-1.7,1.6l-0.5,1.2c-1.1-0.2-2.2-0.3-3.3-0.3
			c-0.8,0-1.6,0.1-2.4,0.2L38.2,20c-0.3-0.8-0.9-1.4-1.6-1.7C36.1,18.1,35.7,18,35.3,18L35.3,18z"/>
	</g>
</g>
<path class="st5" d="M64.4,37.5c-0.1-0.7-0.6-1.4-1.3-1.6l-3.7-1.3c-0.2-0.6-0.5-1.2-0.7-1.8l1.7-3.6c0.3-0.7,0.2-1.5-0.2-2.1
	c-1.4-1.9-3.1-3.6-5.1-5.1c-0.6-0.4-1.4-0.5-2.1-0.2l-3.6,1.7c-0.6-0.3-1.2-0.5-1.8-0.7l-1.3-3.7c-0.2-0.7-0.9-1.2-1.6-1.3
	c-2.6-0.4-4.6-0.4-7.2,0c-0.7,0.1-1.4,0.6-1.6,1.3l-1.3,3.7c-0.6,0.2-1.2,0.5-1.8,0.7l-3.6-1.7c-0.7-0.3-1.5-0.2-2.1,0.2
	c-1.9,1.4-3.6,3.1-5.1,5.1c-0.4,0.6-0.5,1.4-0.2,2.1l1.7,3.6c-0.3,0.6-0.5,1.2-0.7,1.8l-3.7,1.3c-0.7,0.2-1.2,0.9-1.3,1.6
	c-0.2,1.3-0.3,2.5-0.3,3.6c0,1.1,0.1,2.3,0.3,3.6c0.1,0.7,0.6,1.4,1.3,1.6l3.7,1.3c0.2,0.6,0.5,1.2,0.7,1.8L21.9,53
	c-0.3,0.7-0.2,1.5,0.2,2.1c1.4,1.9,3.1,3.6,5.1,5.1c0.6,0.4,1.4,0.5,2.1,0.2l3.6-1.7c0.6,0.3,1.2,0.5,1.8,0.7l1.3,3.7
	c0.2,0.7,0.9,1.2,1.6,1.3c1.3,0.2,2.5,0.3,3.6,0.3s2.3-0.1,3.6-0.3c0.7-0.1,1.4-0.6,1.6-1.3l1.3-3.7c0.6-0.2,1.2-0.5,1.8-0.7
	l3.6,1.7c0.7,0.3,1.5,0.2,2.1-0.2c1.9-1.4,3.6-3.1,5.1-5.1c0.4-0.6,0.5-1.4,0.2-2.1l-1.7-3.6c0.3-0.6,0.5-1.2,0.7-1.8l3.7-1.3
	c0.7-0.2,1.2-0.9,1.3-1.6c0.2-1.3,0.3-2.5,0.3-3.6C64.7,40,64.6,38.9,64.4,37.5z M60.6,42.9l-3.5,1.2c-0.6,0.2-1.1,0.7-1.3,1.3
	c-0.3,1.1-0.7,2.1-1.2,3c-0.3,0.6-0.3,1.3-0.1,1.8l1.6,3.3c-0.8,0.9-1.6,1.8-2.5,2.5l-3.3-1.6c-0.6-0.3-1.3-0.3-1.8,0.1
	c-0.9,0.5-1.9,0.9-3,1.2c-0.6,0.2-1.1,0.7-1.3,1.3l-1.2,3.5c-1.3,0.1-2.3,0.1-3.6,0l-1.2-3.5c-0.2-0.6-0.7-1.1-1.3-1.3
	c-1.1-0.3-2.1-0.7-3-1.2c-0.6-0.3-1.3-0.3-1.8-0.1l-3.3,1.6c-0.9-0.8-1.8-1.6-2.5-2.5l1.6-3.3c0.3-0.6,0.3-1.3-0.1-1.8
	c-0.5-0.9-0.9-1.9-1.2-3c-0.2-0.6-0.7-1.1-1.3-1.3l-3.5-1.2c-0.1-0.6-0.1-1.2-0.1-1.8s0-1.2,0.1-1.8l3.5-1.2
	c0.6-0.2,1.1-0.7,1.3-1.3c0.3-1.1,0.7-2.1,1.2-3c0.3-0.6,0.3-1.3,0.1-1.8l-1.6-3.3c0.8-0.9,1.6-1.8,2.5-2.5l3.3,1.6
	c0.6,0.3,1.3,0.3,1.8-0.1c0.9-0.5,1.9-0.9,3-1.2c0.6-0.2,1.1-0.7,1.3-1.3l1.2-3.5c1.3-0.1,2.3-0.1,3.6,0l1.2,3.5
	c0.2,0.6,0.7,1.1,1.3,1.3c1.1,0.3,2.1,0.7,3,1.2c0.6,0.3,1.3,0.3,1.8,0.1l3.3-1.6c0.9,0.8,1.8,1.6,2.5,2.5l-1.6,3.3
	c-0.3,0.6-0.3,1.3,0.1,1.8c0.5,0.9,0.9,1.9,1.2,3c0.2,0.6,0.7,1.1,1.3,1.3l3.5,1.2c0.1,0.6,0.1,1.2,0.1,1.8S60.7,42.3,60.6,42.9z"/>
<path class="st4" d="M41.1,31.2c-5.2,0-9.4,4.2-9.4,9.4s4.2,9.4,9.4,9.4s9.4-4.2,9.4-9.4S46.3,31.2,41.1,31.2z M41.1,46
	c-2.9,0-5.3-2.4-5.3-5.3c0-2.9,2.4-5.3,5.3-5.3c2.9,0,5.3,2.4,5.3,5.3C46.4,43.6,44,46,41.1,46z"/>
<path class="st4" d="M41.1,46c-2.9,0-5.3-2.4-5.3-5.3c0-2.9,2.4-5.3,5.3-5.3c2.9,0,5.3,2.4,5.3,5.3C46.4,43.6,44,46,41.1,46z"/>
<path class="st6" d="M41.1,46c-2.9,0-5.3-2.4-5.3-5.3c0-2.9,2.4-5.3,5.3-5.3c2.9,0,5.3,2.4,5.3,5.3C46.4,43.6,44,46,41.1,46z"/>
<path class="st7" d="M41.1,46.9c-3.5,0-6.3-2.8-6.3-6.3s2.8-6.3,6.3-6.3s6.3,2.8,6.3,6.3S44.6,46.9,41.1,46.9z"/>
<g>
	<path class="st3" d="M73.8,36.1c-0.2-1-0.9-1.9-1.9-2.2L66.7,32c-0.3-0.9-0.7-1.7-1-2.5l2.4-5c0.4-0.9,0.3-2.1-0.3-2.9
		c-2-2.7-4.4-5.1-7.1-7.1c-0.8-0.6-2-0.7-2.9-0.3l-5,2.4c-0.8-0.4-1.7-0.7-2.5-1l-1.9-5.2c-0.3-1-1.2-1.7-2.2-1.9
		c-3.7-0.6-6.4-0.6-10.1,0c-1,0.2-1.9,0.9-2.2,1.9L32,15.5c-0.9,0.3-1.7,0.7-2.5,1l-5-2.4c-0.9-0.4-2.1-0.3-2.9,0.3
		c-2.7,2-5.1,4.4-7.1,7.1c-0.6,0.8-0.7,2-0.3,2.9l2.4,5c-0.4,0.8-0.7,1.7-1,2.5l-5.2,1.9c-1,0.3-1.7,1.2-1.9,2.2
		c-0.3,1.9-0.4,3.5-0.4,5c0,1.6,0.1,3.2,0.4,5c0.2,1,0.9,1.9,1.9,2.2l5.2,1.9c0.3,0.9,0.7,1.7,1,2.5l-2.4,5
		c-0.4,0.9-0.3,2.1,0.3,2.9c2,2.7,4.4,5.1,7.1,7.1c0.8,0.6,2,0.7,2.9,0.3l5-2.4c0.8,0.4,1.7,0.7,2.5,1l1.9,5.2
		c0.3,1,1.2,1.7,2.2,1.9c1.8,0.3,3.5,0.4,5,0.4s3.2-0.1,5-0.4c1-0.2,1.9-0.9,2.2-1.9l1.9-5.2c0.9-0.3,1.7-0.7,2.5-1l5,2.4
		c0.9,0.5,2.1,0.3,2.9-0.3c2.7-2,5.1-4.4,7.1-7.1c0.6-0.8,0.7-2,0.3-2.9l-2.4-5c0.4-0.8,0.7-1.7,1-2.5l5.2-1.9
		c1-0.3,1.7-1.2,1.9-2.2c0.3-1.9,0.4-3.5,0.4-5S74.1,37.9,73.8,36.1z M68.4,43.6l-4.9,1.7c-0.9,0.3-1.5,1-1.8,1.9
		c-0.4,1.5-1,2.9-1.7,4.2c-0.4,0.8-0.5,1.8-0.1,2.6l2.2,4.7c-1.1,1.3-2.3,2.5-3.5,3.5L54,60c-0.8-0.4-1.8-0.4-2.6,0.1
		c-1.3,0.7-2.7,1.3-4.2,1.7c-0.9,0.3-1.6,0.9-1.9,1.8l-1.7,4.9c-1.8,0.2-3.2,0.2-5,0l-1.7-4.9c-0.3-0.9-1-1.5-1.9-1.8
		c-1.5-0.4-2.9-1-4.2-1.7c-0.8-0.4-1.8-0.5-2.6-0.1l-4.7,2.2c-1.3-1.1-2.5-2.3-3.5-3.5l2.2-4.7c0.4-0.8,0.4-1.8-0.1-2.6
		c-0.7-1.3-1.3-2.7-1.7-4.2c-0.3-0.9-0.9-1.6-1.8-1.9l-4.9-1.7c-0.1-0.9-0.1-1.7-0.1-2.5s0-1.6,0.1-2.5l4.9-1.7
		c0.9-0.3,1.5-1,1.8-1.9c0.4-1.5,1-2.9,1.7-4.2c0.4-0.8,0.5-1.8,0.1-2.6L20,23.6c1.1-1.3,2.3-2.5,3.5-3.5l4.7,2.2
		c0.8,0.4,1.8,0.4,2.6-0.1c1.3-0.7,2.7-1.3,4.2-1.7c0.9-0.3,1.6-0.9,1.9-1.8l1.7-4.9c1.8-0.2,3.2-0.2,5,0l1.7,4.9
		c0.3,0.9,1,1.5,1.9,1.8c1.5,0.4,2.9,1,4.2,1.7c0.8,0.4,1.8,0.5,2.6,0.1l4.7-2.2c1.3,1.1,2.5,2.3,3.5,3.5L60,28.3
		c-0.4,0.8-0.4,1.8,0.1,2.6c0.7,1.3,1.3,2.7,1.7,4.2c0.3,0.9,0.9,1.6,1.8,1.9l4.9,1.7c0.1,0.9,0.1,1.7,0.1,2.5S68.5,42.7,68.4,43.6z
		"/>
	<path class="st8" d="M41.1,52.3c-6.2,0-11.2-5-11.2-11.2s5-11.2,11.2-11.2s11.2,5,11.2,11.2S47.3,52.3,41.1,52.3z M41.1,34.8
		c-3.5,0-6.3,2.8-6.3,6.3c0,3.5,2.8,6.3,6.3,6.3c3.5,0,6.3-2.8,6.3-6.3C47.4,37.6,44.6,34.8,41.1,34.8z"/>
</g>
</svg>
