<?xml version="1.0" encoding="utf-8"?>
<!-- Generator: Adobe Illustrator 24.0.2, SVG Export Plug-In . SVG Version: 6.00 Build 0)  -->
<svg version="1.1" id="artwork" xmlns="http://www.w3.org/2000/svg" xmlns:xlink="http://www.w3.org/1999/xlink" x="0px" y="0px"
	 viewBox="0 0 133.49 38.4" style="enable-background:new 0 0 133.49 38.4;" xml:space="preserve">
<style type="text/css">
	.st0{clip-path:url(#SVGID_2_);}
	.st1{fill:#FFFFFF;stroke:#FFFFFF;stroke-width:0.2;stroke-miterlimit:10;}
	.st2{fill:#FFFFFF;}
	.st3{fill:url(#SVGID_3_);}
	.st4{fill:url(#SVGID_4_);}
	.st5{fill:url(#SVGID_5_);}
	.st6{fill:url(#SVGID_6_);}
	.st7{opacity:0.2;enable-background:new    ;}
	.st8{opacity:0.12;enable-background:new    ;}
	.st9{opacity:0.25;fill:#FFFFFF;enable-background:new    ;}
</style>
<g>
	<defs>
		<path id="SVGID_1_" d="M129.29,0c2.32,0,4.2,1.88,4.2,4.2v30c0,2.32-1.88,4.2-4.2,4.2h-125c-2.32,0-4.2-1.88-4.2-4.2v-30
			c0-2.32,1.88-4.2,4.2-4.2H129.29"/>
	</defs>
	<clipPath id="SVGID_2_">
		<use xlink:href="#SVGID_1_"  style="overflow:visible;"/>
	</clipPath>
	<g class="st0">
		<path d="M129.29,39.2h-125c-2.75,0-5-2.25-5-5v-30c0-2.75,2.25-5,5-5h125c2.75,0,5,2.25,5,5v30
			C134.29,36.95,132.04,39.2,129.29,39.2z"/>
	</g>
</g>
<g>
	<path class="st1" d="M46.71,9.44c0,0.84-0.25,1.51-0.75,2c-0.56,0.59-1.3,0.89-2.2,0.89c-0.87,0-1.6-0.3-2.21-0.9
		c-0.61-0.6-0.91-1.35-0.91-2.23c0-0.89,0.3-1.63,0.91-2.23c0.61-0.6,1.34-0.9,2.21-0.9c0.43,0,0.84,0.08,1.23,0.25
		c0.39,0.17,0.7,0.39,0.94,0.67L45.4,7.52c-0.4-0.47-0.94-0.71-1.64-0.71c-0.63,0-1.18,0.22-1.64,0.67
		c-0.46,0.44-0.69,1.02-0.69,1.73s0.23,1.29,0.69,1.73c0.46,0.44,1.01,0.67,1.64,0.67c0.67,0,1.23-0.22,1.68-0.67
		c0.29-0.29,0.46-0.7,0.5-1.22h-2.18V8.99h2.91C46.7,9.15,46.71,9.3,46.71,9.44z"/>
	<path class="st1" d="M51.32,6.94h-2.73v1.9h2.46v0.72h-2.46v1.9h2.73v0.74h-3.5v-6h3.5V6.94z"/>
	<path class="st1" d="M54.57,12.2H53.8V6.94h-1.68V6.2h4.12v0.74h-1.68V12.2z"/>
	<path class="st1" d="M59.23,12.2v-6H60v6H59.23z"/>
	<path class="st1" d="M63.42,12.2h-0.77V6.94h-1.68V6.2h4.12v0.74h-1.68V12.2z"/>
	<path class="st1" d="M72.9,11.42c-0.59,0.61-1.32,0.91-2.2,0.91c-0.88,0-1.61-0.3-2.2-0.91c-0.59-0.61-0.88-1.35-0.88-2.22
		s0.29-1.62,0.88-2.22c0.59-0.61,1.32-0.91,2.2-0.91c0.87,0,1.6,0.3,2.2,0.91c0.59,0.61,0.89,1.35,0.89,2.22
		C73.79,10.08,73.49,10.82,72.9,11.42z M69.07,10.92c0.44,0.45,0.99,0.67,1.63,0.67s1.19-0.22,1.63-0.67C72.78,10.47,73,9.9,73,9.2
		s-0.22-1.27-0.67-1.72C71.89,7.03,71.34,6.8,70.7,6.8s-1.19,0.22-1.63,0.67c-0.44,0.45-0.67,1.02-0.67,1.72
		S68.63,10.47,69.07,10.92z"/>
	<path class="st1" d="M74.87,12.2v-6h0.94l2.92,4.67h0.03l-0.03-1.16V6.2h0.77v6h-0.8l-3.05-4.89H75.6l0.03,1.16v3.74H74.87z"/>
</g>
<path class="st2" d="M67.43,20.95c-2.35,0-4.27,1.79-4.27,4.25c0,2.45,1.92,4.25,4.27,4.25c2.35,0,4.27-1.8,4.27-4.25
	C71.7,22.74,69.78,20.95,67.43,20.95z M67.43,27.78c-1.29,0-2.4-1.06-2.4-2.58c0-1.53,1.11-2.58,2.4-2.58c1.29,0,2.4,1.05,2.4,2.58
	C69.83,26.72,68.72,27.78,67.43,27.78z M58.11,20.95c-2.35,0-4.27,1.79-4.27,4.25c0,2.45,1.92,4.25,4.27,4.25
	c2.35,0,4.27-1.8,4.27-4.25C62.38,22.74,60.47,20.95,58.11,20.95z M58.11,27.78c-1.29,0-2.4-1.06-2.4-2.58
	c0-1.53,1.11-2.58,2.4-2.58c1.29,0,2.4,1.05,2.4,2.58C60.52,26.72,59.4,27.78,58.11,27.78z M47.04,22.26v1.8h4.32
	c-0.13,1.01-0.47,1.76-0.98,2.27c-0.63,0.63-1.61,1.32-3.33,1.32c-2.66,0-4.74-2.14-4.74-4.8s2.08-4.8,4.74-4.8
	c1.43,0,2.48,0.56,3.25,1.29l1.27-1.27c-1.08-1.03-2.51-1.82-4.53-1.82c-3.64,0-6.7,2.96-6.7,6.61c0,3.64,3.06,6.61,6.7,6.61
	c1.97,0,3.45-0.64,4.61-1.85c1.19-1.19,1.56-2.87,1.56-4.22c0-0.42-0.03-0.81-0.1-1.13H47.04z M92.34,23.66
	c-0.35-0.95-1.43-2.71-3.64-2.71c-2.19,0-4.01,1.72-4.01,4.25c0,2.38,1.8,4.25,4.22,4.25c1.95,0,3.08-1.19,3.54-1.88l-1.45-0.97
	c-0.48,0.71-1.14,1.18-2.09,1.18c-0.95,0-1.63-0.43-2.06-1.29l5.69-2.35L92.34,23.66z M86.54,25.08c-0.05-1.64,1.27-2.48,2.22-2.48
	c0.74,0,1.37,0.37,1.58,0.9L86.54,25.08z M81.92,29.2h1.87V16.7h-1.87V29.2z M78.86,21.9H78.8c-0.42-0.5-1.22-0.95-2.24-0.95
	c-2.13,0-4.08,1.87-4.08,4.27c0,2.38,1.95,4.24,4.08,4.24c1.01,0,1.82-0.45,2.24-0.97h0.06v0.61c0,1.63-0.87,2.5-2.27,2.5
	c-1.14,0-1.85-0.82-2.14-1.51l-1.63,0.68c0.47,1.13,1.71,2.51,3.77,2.51c2.19,0,4.04-1.29,4.04-4.43v-7.64h-1.77V21.9z M76.72,27.78
	c-1.29,0-2.37-1.08-2.37-2.56c0-1.5,1.08-2.59,2.37-2.59c1.27,0,2.27,1.1,2.27,2.59C78.99,26.7,77.99,27.78,76.72,27.78z
	 M101.1,16.7h-4.47v12.5h1.87v-4.74h2.61c2.07,0,4.1-1.5,4.1-3.88S103.17,16.7,101.1,16.7z M101.15,22.72h-2.65v-4.29h2.65
	c1.4,0,2.19,1.16,2.19,2.14C103.33,21.55,102.54,22.72,101.15,22.72z M112.68,20.93c-1.35,0-2.75,0.6-3.33,1.91l1.66,0.69
	c0.35-0.69,1.01-0.92,1.7-0.92c0.97,0,1.95,0.58,1.96,1.61v0.13c-0.34-0.19-1.06-0.48-1.95-0.48c-1.79,0-3.6,0.98-3.6,2.81
	c0,1.67,1.46,2.75,3.1,2.75c1.25,0,1.95-0.56,2.38-1.22h0.06v0.97h1.8v-4.79C116.47,22.17,114.82,20.93,112.68,20.93z M112.45,27.78
	c-0.61,0-1.46-0.31-1.46-1.06c0-0.96,1.06-1.33,1.98-1.33c0.82,0,1.21,0.18,1.7,0.42C114.53,26.96,113.53,27.78,112.45,27.78z
	 M123.04,21.2l-2.14,5.42h-0.06l-2.22-5.42h-2.01l3.33,7.58l-1.9,4.21h1.95l5.13-11.79H123.04z M106.23,29.2h1.87V16.7h-1.87V29.2z"
	/>
<g>
	
		<linearGradient id="SVGID_3_" gradientUnits="userSpaceOnUse" x1="21.0919" y1="194.0902" x2="4.3095" y2="177.3078" gradientTransform="matrix(1 0 0 -1 0 202)">
		<stop  offset="0" style="stop-color:#00A0FF"/>
		<stop  offset="6.574450e-03" style="stop-color:#00A1FF"/>
		<stop  offset="0.2601" style="stop-color:#00BEFF"/>
		<stop  offset="0.5122" style="stop-color:#00D2FF"/>
		<stop  offset="0.7604" style="stop-color:#00DFFF"/>
		<stop  offset="1" style="stop-color:#00E3FF"/>
	</linearGradient>
	<path class="st3" d="M9.73,6.74c-0.29,0.31-0.46,0.79-0.46,1.4v22.12c0,0.62,0.17,1.1,0.46,1.4l0.07,0.07l12.39-12.39V19.2v-0.15
		L9.8,6.67L9.73,6.74z"/>
	
		<linearGradient id="SVGID_4_" gradientUnits="userSpaceOnUse" x1="33.1265" y1="182.7984" x2="8.9296" y2="182.7984" gradientTransform="matrix(1 0 0 -1 0 202)">
		<stop  offset="0" style="stop-color:#FFE000"/>
		<stop  offset="0.4087" style="stop-color:#FFBD00"/>
		<stop  offset="0.7754" style="stop-color:#FFA500"/>
		<stop  offset="1" style="stop-color:#FF9C00"/>
	</linearGradient>
	<path class="st4" d="M26.32,23.48l-4.13-4.13V19.2v-0.15l4.13-4.13l0.09,0.05l4.89,2.78c1.4,0.79,1.4,2.09,0,2.89l-4.89,2.78
		L26.32,23.48z"/>
	
		<linearGradient id="SVGID_5_" gradientUnits="userSpaceOnUse" x1="24.1191" y1="180.5038" x2="1.3608" y2="157.7455" gradientTransform="matrix(1 0 0 -1 0 202)">
		<stop  offset="0" style="stop-color:#FF3A44"/>
		<stop  offset="1" style="stop-color:#C31162"/>
	</linearGradient>
	<path class="st5" d="M26.41,23.42l-4.22-4.22L9.73,31.66c0.46,0.49,1.22,0.55,2.08,0.06L26.41,23.42"/>
	
		<linearGradient id="SVGID_6_" gradientUnits="userSpaceOnUse" x1="6.5895" y1="202.6237" x2="16.752" y2="192.4612" gradientTransform="matrix(1 0 0 -1 0 202)">
		<stop  offset="0" style="stop-color:#32A071"/>
		<stop  offset="0.0685" style="stop-color:#2DA771"/>
		<stop  offset="0.4762" style="stop-color:#15CF74"/>
		<stop  offset="0.8009" style="stop-color:#06E775"/>
		<stop  offset="1" style="stop-color:#00F076"/>
	</linearGradient>
	<path class="st6" d="M26.41,14.98l-14.61-8.3c-0.86-0.49-1.62-0.43-2.08,0.06L22.19,19.2L26.41,14.98z"/>
	<g>
		<path class="st7" d="M26.32,23.33l-14.52,8.25c-0.81,0.46-1.54,0.43-2,0.01l0,0l-0.07,0.07l0,0l0.07,0.07l0,0
			c0.47,0.42,1.19,0.45,2-0.01l14.61-8.3L26.32,23.33z"/>
		<path class="st8" d="M9.73,31.52c-0.29-0.31-0.46-0.79-0.46-1.4v0.15c0,0.62,0.17,1.1,0.46,1.4l0.07-0.07L9.73,31.52z"/>
	</g>
	<path class="st8" d="M31.31,20.5l-4.99,2.83l0.09,0.09l4.89-2.78c0.7-0.4,1.05-0.92,1.05-1.44l0,0
		C32.3,19.67,31.94,20.14,31.31,20.5z"/>
	<path class="st9" d="M11.81,6.82l19.5,11.08c0.63,0.36,0.99,0.82,1.05,1.3l0,0c0-0.52-0.35-1.05-1.05-1.44L11.81,6.68
		c-1.4-0.79-2.54-0.13-2.54,1.47v0.15C9.26,6.69,10.41,6.03,11.81,6.82z"/>
</g>
</svg>
