<?xml version="1.0" encoding="UTF-8" standalone="no"?><!DOCTYPE svg PUBLIC "-//W3C//DTD SVG 1.1//EN" "http://www.w3.org/Graphics/SVG/1.1/DTD/svg11.dtd"><svg width="100%" height="100%" viewBox="0 0 755 121" version="1.1" xmlns="http://www.w3.org/2000/svg" xmlns:xlink="http://www.w3.org/1999/xlink" xml:space="preserve" xmlns:serif="http://www.serif.com/" style="fill-rule:evenodd;clip-rule:evenodd;stroke-linejoin:round;stroke-miterlimit:2;"><rect id="reviewsio-logo" x="0" y="0" width="754.167" height="120.833" style="fill:none;"/><g id="reviewsio-logo1" serif:id="reviewsio-logo"><g><g><path d="M194.232,91.753l-19.299,-24.843c12.391,-2.901 21.054,-10.99 21.054,-24.397l0,-0.229c0,-6.725 -2.459,-12.708 -6.613,-16.866c0,0 0,0 0,0c-5.308,-5.308 -13.62,-8.484 -23.991,-8.484c0,-0 -30.616,-0 -30.616,-0c-3.008,-0 -5.6,2.566 -5.6,5.716l-0,73.038c-0,3.151 2.592,5.717 5.6,5.717c3.138,-0 5.712,-2.573 5.712,-5.717l0,-26.654c0,-0 21.933,-0 21.933,-0c0,-0 22.71,29.503 22.71,29.503c1.247,1.663 2.931,2.868 5.149,2.868c2.864,-0 5.716,-2.592 5.716,-5.605c0,-1.528 -0.651,-2.802 -1.755,-4.047Zm-9.674,-49.119l0.001,0.233l-0.001,0c0,9.945 -8.391,15.788 -19.996,15.788l-24.083,-0c0,-0 0,-31.109 0,-31.109c0,0 24.2,0 24.2,0c12.474,0 19.879,5.593 19.879,15.088Z" style="fill-rule:nonzero;"/><path d="M212.475,95.105c0,3.146 2.592,5.713 5.6,5.713c0,-0 51.417,-0 51.417,-0c2.916,-0 5.246,-2.334 5.246,-5.25c-0,-2.912 -2.329,-5.246 -5.246,-5.246c0,-0 -45.704,-0 -45.704,-0c-0,-0 -0,-26.55 -0,-26.55c-0,-0 39.862,-0 39.862,-0c2.917,-0 5.25,-2.33 5.25,-5.246c0,-2.771 -2.333,-5.25 -5.25,-5.25l-39.862,-0c-0,-0 -0,-25.842 -0,-25.842c-0,0 45.121,0 45.121,0c2.911,0 5.25,-2.334 5.25,-5.25c-0,-2.916 -2.339,-5.25 -5.25,-5.25c-0,0 -50.834,0 -50.834,0c-3.007,0 -5.6,2.566 -5.6,5.717l0,72.454Z" style="fill-rule:nonzero;"/><path d="M322.3,101.755l0.613,-0.002c3.061,-0.053 4.968,-1.777 6.178,-4.472l31.688,-73.194c0.282,-0.704 0.425,-1.408 0.425,-2.253c-0,-2.879 -2.434,-5.484 -5.6,-5.484c-2.509,0 -4.509,1.894 -5.489,3.845c-0.011,0.022 -0.021,0.044 -0.031,0.067l-27.43,65.705c-0,-0 -27.322,-65.472 -27.322,-65.472c-0.974,-2.37 -2.96,-4.145 -5.749,-4.145c-3.156,0 -5.721,2.737 -5.721,5.596c0,0.999 0.152,1.709 0.575,2.559l31.528,72.754c1.099,2.74 3.18,4.496 6.335,4.496Zm-5.375,-4.9c-0,-0 -0,-0 -0,-0Z" style="fill-rule:nonzero;"/><path d="M376.172,22.066l-0,73.621c-0,3.151 2.592,5.717 5.6,5.717c3.138,-0 5.712,-2.573 5.712,-5.717l0,-73.621c0,-3.144 -2.574,-5.716 -5.712,-5.716c-3.008,-0 -5.6,2.565 -5.6,5.716Z" style="fill-rule:nonzero;"/><path d="M464.756,16.936l-0.136,-0.002c0,0 -50.837,0 -50.837,0c-3.003,0 -5.596,2.566 -5.596,5.717l-0,72.454c-0,3.146 2.592,5.713 5.596,5.713c-0.001,-0 51.42,-0 51.42,-0c2.912,-0 5.246,-2.334 5.246,-5.25c0,-2.912 -2.334,-5.246 -5.246,-5.246c0,-0 -45.704,-0 -45.704,-0c0,-0 0,-26.55 0,-26.55c0,-0 39.858,-0 39.858,-0c2.922,-0 5.25,-2.33 5.25,-5.246c0,-2.771 -2.328,-5.25 -5.25,-5.25l-39.858,-0c0,-0 0,-25.842 0,-25.842c0,0 45.121,0 45.121,0c2.911,0 5.25,-2.334 5.25,-5.25c-0,-2.87 -2.267,-5.177 -5.114,-5.248Z" style="fill-rule:nonzero;"/><path d="M564.974,101.869l0.96,-0c2.726,-0.058 4.686,-1.926 5.645,-4.672c-0.004,0.009 26.176,-72.674 26.176,-72.674c0.003,-0.01 0.006,-0.019 0.01,-0.029c0.261,-0.8 0.635,-1.745 0.635,-2.545c-0,-2.865 -2.709,-5.596 -5.717,-5.596c-2.692,0 -4.576,1.782 -5.43,4.332c0.004,-0.011 -21.654,62.284 -21.654,62.284l-20.424,-62.282c-0.846,-2.544 -2.72,-4.334 -5.542,-4.334l-0,0.009l-0.588,-0.009c-2.967,0 -4.7,1.79 -5.546,4.334l-20.423,62.28c-0,-0 -21.542,-62.064 -21.542,-62.064c-0.835,-2.503 -2.976,-4.55 -5.776,-4.55c-3.137,0 -5.829,2.718 -5.829,5.713c-0,0.813 0.246,1.625 0.516,2.433l26.184,72.7c0.963,2.878 2.924,4.616 5.645,4.67l0.96,-0c2.722,-0.058 4.687,-1.927 5.641,-4.674l20.173,-59.95l20.285,59.952c0.959,2.746 2.924,4.614 5.641,4.672Z" style="fill-rule:nonzero;"/><path d="M657.419,78.508l0,0.233c0,7.549 -6.903,12.867 -17.187,12.867c-10.106,-0 -17.609,-3.063 -25.104,-9.413l-0.021,-0.019c-0.741,-0.724 -2.049,-1.323 -3.504,-1.323c-3.022,0 -5.488,2.435 -5.488,5.6c0,1.876 0.884,3.46 2.174,4.345c9.299,7.379 19.434,11.189 31.593,11.189c16.898,-0 28.966,-9.592 28.966,-24.179l0,-0.238c0,-12.96 -8.567,-20.031 -27.461,-24.151c-0.001,-0 -0.002,-0.001 -0.004,-0.001c-17.165,-3.68 -21.38,-7.517 -21.38,-14.877l-0,-0.233c-0,-6.872 6.447,-12.163 16.37,-12.163c7.377,0 13.844,2.05 20.541,6.929c0.002,0.002 0.004,0.003 0.006,0.005c0.997,0.716 2.001,1.012 3.295,1.012c3.025,-0 5.479,-2.448 5.479,-5.483c0,-2.135 -1.26,-3.712 -2.403,-4.571c-0.006,-0.004 -0.012,-0.009 -0.018,-0.013c-7.654,-5.501 -15.66,-8.258 -26.666,-8.258c-16.195,-0 -27.921,9.968 -27.921,23.362l1.042,1.042c-0.001,0 -1.042,-1.035 -1.042,-1.035c-0,-0 -0,0.217 -0,0.217c-0,0 1.042,1.047 1.042,1.047l-1.042,-1.041c-0,13.919 8.802,20.393 28.287,24.626c0.002,0 0.004,0.001 0.006,0.001c16.349,3.451 20.44,7.292 20.44,14.523Z" style="fill-rule:nonzero;"/></g><g><path d="M681.727,89.907l-0.099,-0.001c-2.197,0 -3.763,1.574 -3.763,3.696l0.625,0.625c0,0 -0.625,-0.625 -0.625,-0.625l0,1.308c0,2.119 1.569,3.763 3.763,3.763c2.117,-0 3.696,-1.64 3.696,-3.763c-0,0.346 -0.28,0.625 -0.625,0.625c-0,0 0.625,-0.07 0.625,-0.654l-0,-1.279c-0,-2.093 -1.526,-3.647 -3.597,-3.695Zm-3.182,5.619c-0.034,0.007 -0.055,0.009 -0.055,0.009c0.019,0 0.038,-0 0.057,-0.002l-0.002,-0.007Z" style="fill-rule:nonzero;"/><path d="M695.062,66.152l-0,29.346c-0,1.79 1.386,3.175 3.17,3.175c1.8,-0 3.113,-1.381 3.113,-3.175l0,-29.346c0,-1.795 -1.385,-3.175 -3.175,-3.175c-1.711,0 -3.108,1.464 -3.108,3.175Zm-0.458,-11.962l-0.001,-0c0,1.919 1.571,3.304 3.567,3.304c2.073,-0 3.629,-1.389 3.629,-3.304l0,-0.846c0,-1.997 -1.556,-3.309 -3.629,-3.309c-1.996,0 -3.567,1.308 -3.567,3.309l0.001,0.846Z" style="fill-rule:nonzero;"/><path d="M746.183,80.873l0.001,-0.142c0,-9.886 -7.714,-18.146 -18.204,-18.146c-10.557,0 -18.275,8.396 -18.275,18.275l0.129,0.13l-0.129,-0.126l0,0.126c0,9.882 7.651,18.141 18.142,18.141c10.556,0 18.331,-8.385 18.336,-18.258Zm-6.411,0.117l-0,-0.13c-0,-6.902 -5.146,-12.583 -11.925,-12.583c-6.962,0 -11.73,5.679 -11.73,12.454l0,0.129c0,6.901 5.085,12.509 11.863,12.509c6.957,-0 11.792,-5.605 11.792,-12.379Z"/></g></g><g><g><path d="M95.146,23.399l-5.024,2.52c9.794,7.909 14.582,18.125 15.472,30.487c-0.744,23.861 -12.002,39.197 -31.341,45.774c-22.343,6.732 -36.501,1.285 -50.201,-12.674l-0.863,5.366l5.57,5.804c19.375,20.191 51.498,20.854 71.689,1.479c20.191,-19.376 20.854,-51.498 1.478,-71.69l-6.78,-7.066Z" style="fill:#feef7c;"/><path d="M20.433,91.882l3.366,-2.94c-13.985,-19.818 -14.571,-48.832 4.568,-64.805c14.187,-11.84 42.337,-17.977 64.858,1.852l1.681,-2.957l-5.488,-5.72c-19.376,-20.191 -51.498,-20.854 -71.69,-1.478c-20.191,19.375 -20.853,51.498 -1.478,71.689l4.183,4.359Z" style="fill:#5cd3cb;"/></g><path d="M8.333,59.138c0,28.054 22.746,50.8 50.8,50.8c28.059,-0 50.804,-22.746 50.804,-50.8c0,-28.059 -22.745,-50.805 -50.804,-50.805c-28.054,0 -50.8,22.746 -50.8,50.805Zm35.359,9.188c0.534,-1.69 -0.06,-3.532 -1.48,-4.593c-3.76,-2.808 -11.173,-8.344 -16.154,-12.064c-0.719,-0.537 -1.013,-1.474 -0.73,-2.326c0.283,-0.852 1.079,-1.426 1.977,-1.426l19.306,-0c1.797,-0 3.391,-1.152 3.956,-2.857c1.522,-4.597 4.547,-13.733 6.553,-19.789c0.282,-0.851 1.077,-1.427 1.974,-1.428c0.897,-0.001 1.695,0.572 1.979,1.422c2.027,6.061 5.088,15.212 6.625,19.807c0.569,1.699 2.16,2.845 3.952,2.845c4.567,-0 13.365,-0 19.355,-0c0.895,-0 1.691,0.572 1.975,1.422c0.284,0.85 -0.006,1.786 -0.722,2.325c-4.966,3.741 -12.383,9.327 -16.135,12.153c-1.412,1.063 -1.999,2.902 -1.466,4.586c1.451,4.582 4.361,13.771 6.327,19.978c0.274,0.867 -0.046,1.813 -0.791,2.335c-0.745,0.522 -1.742,0.501 -2.464,-0.053c-4.989,-3.83 -12.278,-9.425 -16.095,-12.354c-1.501,-1.152 -3.589,-1.149 -5.086,0.009c-3.78,2.922 -10.97,8.482 -15.917,12.307c-0.72,0.557 -1.719,0.582 -2.466,0.06c-0.747,-0.521 -1.069,-1.467 -0.795,-2.335c1.966,-6.225 4.872,-15.43 6.322,-20.024Z" style="fill-rule:nonzero;"/></g></g></svg>